<svg xmlns="http://www.w3.org/2000/svg" viewBox="0 0 540 550"><path d="M239 27.9c-1.6.4-2.5 1.4-2.5 2.6 0 1.4-.7 1.9-2.2 1.8-3.9-.4-9.2 2.6-12 6.9-4.1 6-6.2 10.1-6.3 12 0 .9-1.3 2.6-2.9 3.7-2 1.5-2.8 2.7-2.4 4 .3 1.3-.2 2.3-1.7 3.1-1.5.8-2 1.8-1.7 3.1.4 1.3-.2 2.5-1.7 3.4-1.3.9-2.8 2.6-3.4 4-.6 1.3-3.1 4.8-5.5 7.8-5.7 7-9.1 17.2-9.1 27.6 0 9.3 1.2 16 3.2 18.3 1.1 1.3 1.2 2.1.4 3.1-.7.8-.7 1.8-.2 2.7.6.8 1 2.7 1 4.1 0 3.2 2.7 9.9 3.9 9.9 1.2 0 3.4 5.7 6.1 15.7 2.2 8.3 5 12 8.3 10.7 3.2-1.2 6.6 1.4 8 6.1.9 3.1 2.1 5 3.7 5.8 1.5.8 2.7 2.4 3 4.2.4 2.4 1 3 3 2.9 1.4-.1 3.2-.4 4.1-.8 2.2-1 4.7 3.7 3 5.7-.6.8-.9 2.2-.5 3.1.4 1.2.2 1.5-.9 1.1-2.1-.9-3.7 4.3-2.8 9.2 1 5.1 1.8 6.3 4.3 6.3 1.5 0 1.9.5 1.5 2-.4 1.5 0 2 1.4 2 1.1 0 3.4.7 5 1.6 2.8 1.4 3.3 1.4 7.4-.6 2.7-1.3 5.9-2 8-1.9 2.7.3 3.9-.2 5.1-1.9.8-1.2 2-2.2 2.5-2.2 1.6 0 4.8-4.2 4.9-6.3 0-1.1 1.2-2.2 3-2.8 3.5-1.3 4.1-4.4.9-5.4-1.6-.5-2.7.1-4.8 2.6-2.2 2.5-3.2 3.1-5.2 2.6s-2.4-1.3-2.6-4.8c-.1-2.6.5-4.8 1.3-5.7.8-.8 1.8-2.7 2.1-4.3.3-1.6 1-2.9 1.5-2.9.6 0 .7 1.1.4 2.5-.5 2-.3 2.5 1.3 2.5 2.3 0 9.4-7.9 8.7-9.7-.8-1.9.4-4.3 2-4.3.7 0 1.9-1 2.5-2.3.6-1.2 2.3-3.4 3.6-4.9 2.3-2.4 2.4-3 1.5-5.8-1.3-3.7-.5-9 1.4-9 1.8 0 1.8-1-.1-2.4-1.2-.9-1.3-2-.4-6.6 1-5.6 3.1-25.7 4.8-47.4.8-9.6.7-12.3-.4-14-.8-1.2-1.9-5.9-2.5-10.6-.6-4.7-2.1-11-3.2-14s-2.6-7.5-3.4-9.8c-1.9-6.2-7.3-15.2-9-15.2-.8 0-4.2-1.3-7.7-2.9-8.5-3.9-12.6-5.1-17.5-5.1-2.2 0-4.4-.5-4.7-1-.7-1.1-1.8-1.1-5.5-.1zm17 171.6c.9.5-.1 7.5-1 7.5-.4 0-1-.9-1.3-2-.4-1.5-1.4-2-3.6-2-1.7 0-3.1-.5-3.1-1 0-.6-.7-1-1.5-1-1.6 0-2-1.2-.7-2.4.6-.7 9.8 0 11.2.9zm5 8.3c0 .5-.7 1.7-1.6 2.8-.8 1-1.4 1.4-1.1.9.2-.6.7-1.8 1-2.8.7-1.7 1.7-2.3 1.7-.9zM352.7 44.7c-.4.3-.7 1.5-.7 2.5s-.7 1.8-1.7 1.8c-3.6.1-6.3 2.7-14.8 14-4.8 6.3-9.8 12.7-11.1 14.1-1.3 1.4-2.2 2.8-1.9 3 .2.3-.7 3.6-2.1 7.5-1.5 3.8-2.9 8.5-3.3 10.4-1 4.5-5.9 18.6-7.8 22.3-4.7 9.1-7.4 34.9-5.2 48.6.6 3.6 1.2 8.3 1.4 10.5.2 2.1 1 4.6 1.8 5.5.8.9 2 4 2.7 6.9.7 3.3 1.9 5.6 3.1 6.3 1.1.5 2.7 2.8 3.5 4.9 1.7 4.2 2.7 4.8 14 7.3 5.6 1.3 6.3 1.2 8.4-.5 1.2-1 2.8-1.8 3.6-1.8 2.2 0 12.9-5.8 15-8.1 1-1.1 3.2-2.8 4.7-3.6 4.9-2.5 23.6-17.6 24.3-19.5.3-1 1.2-1.8 2-1.8s1.4-.7 1.4-1.5.5-1.5 1-1.5c.6 0 1-.7 1-1.5s.9-1.9 2-2.5c1.5-.8 1.9-1.7 1.5-3.1-.5-1.4 0-2.2 1.7-3 3.3-1.4 6-9.1 6-16.7 0-1.2.4-2.2.9-2.2 1.2 0 1.1-3.7-.2-6.1-.8-1.5-.7-2.6.4-4.2.8-1.3 1.4-4.7 1.4-8 0-4.6-.4-6-1.8-6.8-2.3-1.2-2.5-5.7-.3-6.6 1.2-.4 1.1-.8-.8-1.7-1.5-.8-2.2-1.9-2-3.3.2-1.2-.4-2.3-1.5-2.7-1.5-.6-1.5-.8.7-1.9 3.5-1.8 3.5-3.3 0-4.7-2.8-1.2-3.3-1.1-5.5 1-2.9 2.7-3.2 1.5-1-3.7.8-1.9 1.5-4.4 1.5-5.4 0-1.1.5-1.9 1-1.9.6 0 1.9-1.4 3-3.2 1.7-2.8 1.7-3.4.5-4.8-2-2.2-5.5-10.1-5.5-12.5 0-2.4-5.6-9.5-7.5-9.5-.7 0-2.7-1.8-4.4-3.9-2.3-2.8-3.7-3.8-5.1-3.4-1.3.3-2.9-.5-4.8-2.7-2.5-2.7-3.3-3-5-2.1-1.3.7-3.8.7-7.8.1-3.3-.6-5.9-1-6-1 0 0-.4.3-.7.7zM337.5 78c.3.5.1 1-.4 1-.6 0-1.1-.5-1.1-1 0-.6.2-1 .4-1 .3 0 .8.4 1.1 1zm5.3 6c-.7 1-1.4 1.8-1.5 1.6-.6-.6.9-3.6 1.8-3.6.5 0 .4.9-.3 2zM305.2 109.8c-2.4 1.9-2.1 3.2.8 3.2 1.6 0 5-2.9 5-4.3 0-1.3-3.5-.6-5.8 1.1zM306.5 116c-.3.5-.1 1 .4 1 .6 0 1.1-.5 1.1-1 0-.6-.2-1-.4-1-.3 0-.8.4-1.1 1zM145 142.9c0 .5.7 1.2 1.6 1.5 1.4.5 1.4.9.3 2.2-1.1 1.4-1 1.9 1.1 3.6 1.9 1.5 2.2 2.3 1.3 3.6-1.4 2.4-6.4 2.8-7.9.7-1.2-1.5-1.4-1.5-3.8 0-1.4 1-2.6 2.4-2.6 3.1 0 .8-.6 1.4-1.3 1.4-.7 0-2.9 1.7-4.9 3.7-3.7 3.9-4.3 6.8-2.2 11.7.6 1.5-.1 2.7-3.1 5.3-3.9 3.4-3.9 3.4-1.5 4.1 2.5.6 2.5.6-.5 1.3-2.6.6-2.3.7 1.8.8 5.6.1 6.1 1.7 1.7 4.9-3.3 2.4-3.9 4.2-1.5 4.2.8 0 1.5.6 1.5 1.3 0 .7 1.2 1.2 2.8 1.2 4.5 0 3.8 1.8-2.3 5.4-5.5 3.2-5.7 3.4-3.6 4.5 1.2.7 1.8 1.5 1.5 1.9-.4.4-.2.7.4.7.7 0 1.2-.5 1.2-1 0-.6.5-1 1-1 .6 0 1 .7 1 1.5s.6 1.5 1.3 1.5c.8 0 .7.3-.3 1-.9.6-1.9.5-2.9-.3-.9-.7-.7 0 .5 1.8 1.8 2.8 1.8 2.9 0 2.2-1.3-.5-1.7-.3-1.3.7.3.8-.2 1.6-1.4 1.9-2.3.6-5.5-3-6.4-7.3-.4-1.7-1.1-3-1.6-3-.6 0-.7.4-.4 1 .3.5.1 1-.4 1-2 0-1.1 3.1 1.9 6.3 1.6 1.8 3 3.5 3 3.9 0 1.5-2.1 1.8-4.1.7-1.7-.9-2.3-.8-3 .2-.8 1.2-1 1.2-1.8 0-.6-.9-1.4-1.1-2.6-.4-1.6.9-1.4 1.2 1.4 2.9 1.8 1.1 3.1 2.7 3.1 3.8 0 1.6.3 1.7 1.2.8.7-.7 1.9-1.2 2.7-1.1 1.1 0 1.2.2.3.6-.6.2-1 .9-.6 1.4.3.5-.2.9-1.2.9-1.2 0-1.5.6-1.1 2.1.3 1.3.1 1.9-.6 1.6-.7-.2-1.1-1.2-1.1-2.1.1-.9-.4-1.6-1-1.6-.8 0-1.1 1.3-.8 3.6.3 2.6.7 3.2 1.3 2.3.8-1.1 1.5-.7 3.4 1.6 1.4 1.6 2.3 3.5 2.1 4.2-.3.6.2 1.7 1 2.4 1.2 1 1.7.9 2.7-.1.8-.9.8-1.1.1-.7-1.6.9-2.2-1.2-1.3-4.8l.7-3 .1 3.1c0 1.8.7 3.4 1.6 3.8 1.8.7 2 4.6.3 4.7-.7.1-2.1.1-3 0-1.4-.2-1.8.5-1.8 2.9 0 2.1-.4 3-1.2 2.7-.7-.2-1.4-.9-1.4-1.5-.1-.7-.2-1.7-.3-2.2-.2-1.6-2.1-1.2-2.1.4 0 .9-.7 1.3-2 1.1-3.7-.7-3.1 1.6 1.9 6.5 2.8 2.9 5.2 4.6 5.6 4 1.4-2.3 2.4.3 1.8 5.1-.5 4.2-.3 4.9 1 4.4.8-.4 1.8-.2 2.2.4.3.7-.2 1.1-1.4 1.1-1.1 0-2.3.4-2.6 1-.9 1.4 2.9 1.2 4.3-.2 2-2 4.4-1.8 6.4.8 2.3 2.9 7.2 3.3 8.4.6.4-.9.6-2 .6-2.5-.1-.4.3-.7.8-.7 1.5 0 1.2-1.9-.6-3.8-1.5-1.5-1.6-1.4-.9.7.6 2 .4 2.3-1 1.8-.9-.4-2.1-.7-2.7-.7-.5 0-.8-1-.6-2.3.2-1.4.9-2.2 2-2.1 1 .1 1.7-.1 1.6-.5-.2-2.2.3-4.1 1.1-3.6.5.3 1.3 0 1.6-.6.4-.5 1.4-.8 2.2-.5.9.4 1.3.1 1-.6-.2-.7-1.2-1.2-2.1-1.2-1.3.2-1.4-.1-.6-1.1.8-.9.8-1.5 0-2-.5-.3-1-.3-1 .1 0 .3-.6.1-1.4-.5-1-.9-1.6-.9-2.1-.1s-1.1.8-2.1-.1c-.7-.6-2.1-.9-2.9-.5-1.3.5-1.4.2-.4-1.6.9-1.7.9-2.3 0-2.6-1.1-.4-1.6-4.2-.5-4.2.4 0 2.2 1.3 4.1 3 3.5 3.1 6.8 3.9 7.6 1.7.3-.6.3.3 0 2-.3 2.1-.1 3.3.6 3.3.6 0 1 .5.8 1.2-.1.6.5 1.3 1.4 1.5 1.3.3 1.6-.5 1.7-3.9 0-6.1 0-6.2 1.7-4.8.9.7 1.5.8 1.5.2 0-.5 1.8-1.2 4.1-1.4 3.7-.3 4.1-.1 5.6 3 1.2 2.5 1.8 3 2.5 2 .6-.8.7 0 .3 2.4-.7 4.3.9 6.8 3.8 6 1.6-.4 1.8-.1 1.3 1.6-1 2.9 1.2 3.8 3.5 1.3 2-2.2 2.6-5.1.9-5.1-1.5 0-1.2-3.6.5-5 .8-.6 1.4-1.9 1.3-2.8-.3-3.7.3-5.2 1.9-5.2 1.4 0 1.4-.3.5-1.2-1-1-1.5-1-2.2.2-.5.8-1.2 1.1-1.6.7-1.1-1 1.6-3.7 3.7-3.7 1.1 0 1.9.7 2 1.7 0 1.4.2 1.3.9-.5.6-1.4.6-3.2-.1-4.9-1.2-3.3.2-5.3 2.5-3.4 1.8 1.5 3.7.6 3-1.3-.3-.8-.1-1.7.5-2.1.6-.3 1.1.1 1.1.9 0 1.6 2.6 4.6 4.1 4.6.5 0 .9-2.5.9-5.6 0-4.1-.5-6.3-2-8.1-2.7-3.4-2.5-4.5.5-3.7 1.9.5 2.5.2 2.5-1 0-2-3.2-3.5-3.8-1.8-.2.7-1 1.2-1.8 1.2-1 0-1.3.7-.8 2.5.4 1.6.2 2.5-.6 2.5-.6 0-.9.3-.6.8.2.4-.7 1.2-2 1.9-1.9.9-2.4.8-2.4-.3 0-.8.4-1.4.9-1.4s1.1-1.5 1.5-3.3c.6-2.7.2-3.6-1.9-5.5-1.5-1.2-3-2-3.5-1.7-1 .6-1.4-.6-3-9-.7-3.3-1.5-6.7-1.8-7.5-.3-.8-.7-2.5-.8-3.7-.2-1.3-1.7-5.1-3.4-8.5-1.7-3.5-3.7-7.4-4.4-8.8-.9-1.9-1-3.1-.2-4.3.9-1.5.7-2.1-.9-3.3-1.1-.9-1.9-1.8-1.9-2.2.1-.4.4-1.9.8-3.5.7-3-.9-3.7-2.8-1.2-1 1.4-1.6 1.1-4.5-1.9-2.8-2.9-3-3.4-1.2-2.9 1.2.3 2.1.1 2.1-.6 0-.6-.5-1.1-1.1-1.1-.6 0-.9-.9-.6-2 .3-1.3-.3-2.4-1.9-3.5-2.7-1.7-3.2-3.5-.9-3.5 2.6 0 1.6-1.8-1.5-2.9-1.6-.5-3-.6-3-.2zM155 142.9c0 .5.5 1.3 1 1.6.6.3 1 .2 1-.4 0-.5-.4-1.3-1-1.6-.5-.3-1-.2-1 .4zM159 144.9c0 .4 1.1 2.5 2.5 4.5 2.8 4.1 3.1 5.6 1.4 7.3-.8.8-.8 1.6 0 3 1 1.7 1 1.7 1.1-.3 0-1.2.7-2.7 1.5-3.4 2.2-1.8 1.9-3.7-1.2-8.1-2.6-3.5-5.3-5.1-5.3-3z"/><path d="M154.2 149.1c.5 1.4 6.8 5.3 6.8 4.2 0-.7-2.6-2.8-5.4-4.4-1.4-.8-1.7-.8-1.4.2zM154 153.4c0 .2.7.9 1.5 1.6 1.2 1 1.5 1 1.5-.4 0-.9-.7-1.6-1.5-1.6s-1.5.2-1.5.4zM166.1 159.7c0 2.5.1 2.6.9.8 1.2-2.7 1.2-3.5 0-3.5-.5 0-1 1.2-.9 2.7zM296 162c0 .5.5 1 1 1 .6 0 1-.5 1-1 0-.6-.4-1-1-1-.5 0-1 .4-1 1zM169 164c0 .5.5 1 1.1 1 .5 0 .7-.5.4-1-.3-.6-.8-1-1.1-1-.2 0-.4.4-.4 1zM120.8 166.7c.7.3 1.6.2 1.9-.1.4-.3-.2-.6-1.3-.5-1.1 0-1.4.3-.6.6zM167 169c0 .5.5 1 1.1 1 .5 0 .7-.5.4-1-.3-.6-.8-1-1.1-1-.2 0-.4.4-.4 1zM170 169c0 .5.5 1 1.1 1 .5 0 .7-.5.4-1-.3-.6-.8-1-1.1-1-.2 0-.4.4-.4 1zM290.7 170.7c-1 .9-.9 2.3.2 2.3.5 0 1.1-.7 1.5-1.5.5-1.5-.5-2-1.7-.8zM172 174.3c0 .7.7 2.2 1.6 3.3 1.4 1.7 1.5 1.7 1 .1-.3-1-.6-2.5-.6-3.3 0-.8-.4-1.4-1-1.4-.5 0-1 .6-1 1.3zM81 176.6c0 .8.5 1.2 1 .9.6-.4.8-1.1.5-1.6-.9-1.4-1.5-1.1-1.5.7zM165 175.9c0 .6.5 1.3 1 1.6.6.3 1-.1 1-.9 0-.9-.4-1.6-1-1.6-.5 0-1 .4-1 .9zM120 177.5c-1 1.2-1 1.5.4 1.5.9 0 1.6-.7 1.6-1.5s-.2-1.5-.4-1.5-.9.7-1.6 1.5zM169 179.5c-1.8 2.1-.3 3.2 1.6 1.3 1-.9 1.2-1.8.6-2.2-.5-.3-1.5.1-2.2.9zM93.1 183.6c0 1.1.3 1.4.6.6.3-.7.2-1.6-.1-1.9-.3-.4-.6.2-.5 1.3zM115.7 185.4c-.6 1.6.2 2.8 1.4 2 1.2-.7 1.1-3.4 0-3.4-.5 0-1.1.6-1.4 1.4zM76 186c-1.3.8-1.2 1 .3 1 .9 0 1.7-.5 1.7-1 0-1.2-.1-1.2-2 0zM171.6 185.9c-.3.5.5 1.6 1.9 2.5 2.1 1.4 2.5 1.4 2.5.2 0-1.8-3.6-4-4.4-2.7zM378.5 186c-.3.5-.1 1 .4 1 .6 0 1.1-.5 1.1-1 0-.6-.2-1-.4-1-.3 0-.8.4-1.1 1zM117.8 190.7c-1 1.1-1.8 2.4-1.8 3 0 .6-.7 1.3-1.5 1.7-1.6.6-2.1 2.6-.6 2.6 2.1 0 6.2-4.9 5.9-7.1-.3-2.1-.3-2.1-2-.2zM184 196.2c0 .7.4 1.9.8 2.6 1.1 1.7 4.5.4 3.8-1.5-.3-.8-.6-1.7-.6-1.9 0-.2-.9-.4-2-.4s-2 .6-2 1.2zM119.5 197c.3.5 1 1 1.6 1 .5 0 .9-.5.9-1 0-.6-.7-1-1.6-1-.8 0-1.2.4-.9 1zM178.5 199c-.3.5.1 1 .9 1 .9 0 1.6-.5 1.6-1 0-.6-.4-1-.9-1-.6 0-1.3.4-1.6 1zM107 200c0 .5.5 1 1 1 .6 0 1-.5 1-1 0-.6-.4-1-1-1-.5 0-1 .4-1 1zM114 200c0 .5.5 1 1 1 .6 0 1-.5 1-1 0-.6-.4-1-1-1-.5 0-1 .4-1 1zM438 200.1c-2.5.5-5.2.6-6.1.4-.9-.3-2.8 0-4.3.6-1.9.9-2.9.9-4 0s-1.8-.6-3.5 1.5c-1.2 1.5-2.1 3-2.1 3.4 0 .4-1.3 1-2.8 1.3-2 .4-4.7 2.8-8.5 7.4-3 3.7-6.5 7.8-7.6 9.1-1.2 1.2-2.1 3-2.1 3.8 0 1.1-.6 1.3-2.1.9-1.4-.5-1.9-.3-1.5.3.5.8-4.2 3.2-6.3 3.2-1.3 0-3.2-6.9-2.5-9.4.4-1.9.2-2.6-.9-2.6-.8 0-1.8.7-2.1 1.6-.4 1-1.2 1.4-2.2 1-1.2-.4-1.4-.1-.9 1.4.5 1.5 0 2.3-1.9 3.1-1.4.7-2.8 2-3.1 3.1-.4 1.1-1.6 1.8-3.1 1.8s-2.4.6-2.4 1.5c0 .8-.7 1.5-1.5 1.5-2 0-1.9-1 .5-4 2.5-3.2 2.5-4.4 0-3.7-2.3.6-2.7-1.2-.7-3.2 1-1.1 1-1.4 0-1.8-1.8-.6-1.6-2.3.2-2.3.8 0 1.5-.7 1.5-1.5s-.5-1.5-1.1-1.5c-1.5 0-6.9 6.2-6.3 7.2.3.4 0 .8-.5.8-.6 0-1.1.6-1.1 1.3 0 2.3-7.6 5.1-13 4.8-2.7-.1-5.1.3-5.5.9-1.1 1.7.3 2.4 2 1 1.2-1 1.6-.9 2.1.4.8 2 2.7 2 6.4.1 1.7-.9 3-1.1 3-.6 0 1.6-2.4 2.9-6.5 3.6-5.2.8-9.5 2.5-9.5 3.6 0 1.3 2.3 1.1 6.3-.6 4.9-2 8-1.9 10.2.5 1.6 1.7 1.6 2 .2 2-.9 0-1.9-.5-2.3-1.1-.5-.8-.9-.8-1.4.1-.4.6-3.1 1.3-5.9 1.4-3 .1-5.8.9-6.7 1.7-.9 1-2.6 1.4-4.4 1.1-3-.4-3.8-1.6-2-2.7 1.5-.9.2-2.5-2.1-2.5-1.4 0-1.9.7-1.9 2.5 0 1.3-.8 2.8-1.7 3.4-1.5.8-1.6 1.2-.5 2.3.9.9 1.9 1 4 .2 1.5-.6 3.7-.7 4.7-.4 1.2.5 2.6.2 3.6-.6 1.4-1.2 2-1.2 4.3 0 3 1.5 2.8 1.8-2.6 3.5-6 2-4 4.6 2.5 3.5 3.2-.6 3.2-.6 1 1-1.3 1-2.3 2.1-2.3 2.7 0 1.5 8.6 1.1 10-.6.7-.8 2.2-1.5 3.4-1.5 2 .1 1.9.2-.7 2.6-1.6 1.4-3.6 2.2-4.5 2-2.7-.9-3.8.6-3.8 4.6 0 3 .4 3.8 1.8 3.8 1 0 1.8-.7 1.8-1.5s.6-1.5 1.3-1.5c.8 0 1.2 1.7 1.2 5.5-.1 4.9.1 5.4 1.7 4.9 1.2-.3 1.8 0 1.8 1 0 .9.7 1.6 1.6 1.6 1.3 0 1.1.6-.7 3.1l-2.2 3.1 2.2-.7c1.8-.5 2.1-.2 2.1 2.2 0 1.6-.5 3.4-1.1 4-1 1-2 9.3-1.2 9.3.2 0 1.7-.7 3.3-1.5 1.7-.9 3-1.1 3-.6 0 1.1-2.9 3.5-4.4 3.6-2.2.2-4.6 1.7-4 2.6.3.5 1 .7 1.5.3.6-.3 1 0 .8.7-.3 2.7.1 3.8 1.9 4.8 1.4.8 1.8.5 1.9-1.1.3-2.8 1-3.3 2.7-1.9 1.1.9 1.3 2.2.9 4.4-.6 3-.5 3.1 1.3 1.7 1-.8 2.2-1.9 2.6-2.5.4-.5 1-.6 1.4-.3.3.4-.1 1.4-1 2.3-.9.9-1.6 2.3-1.6 3.1 0 2.3 2.6 1.6 4.4-1.1 1.5-2.2 4.5-3.8 3.2-1.6-.7 1 1.9 2.3 2.8 1.4 1.4-1.4.4-5.4-1.9-7.9-1.4-1.5-2.5-2.3-2.5-1.8 0 .5-.4 1.5-.9 2.2-.6 1.1-1.3.9-3.2-1-2.6-2.7-3.9-6.6-1.8-5.2 2.3 1.4 10.3 2.2 11.6 1.2.7-.5 1.4-.5 1.7.1.4.6 1.4.7 2.3.4 1.1-.5 1.4-.3.9.6-.5.8-1.8 1-3.3.6-2.2-.5-2.4-.3-2.1 2.2.2 2.3.8 2.8 3.1 2.8 2.9 0 4.7 1.8 4.7 4.9 0 1.5-.3 1.6-1.5.6s-1.7-.7-2.6 1.4c-1 2-1.5 2.3-2.6 1.5-.9-.8-1.3-.8-1.3-.1 0 .6-.6.9-1.4.6-.9-.4-1.8.6-2.7 3-.7 2-1.7 3.6-2.1 3.6-.5 0-.4.9.2 2 .6 1 .9 2.5.8 3.2-.2.7.7 1.4 1.9 1.6 1.2.2 2.7 1 3.3 1.8 1.7 1.9 3 1.8 3-.4 0-1.4.4-1.2 2 .8 1.9 2.5 1.9 2.5-.2 4.7s-2.1 2.3-.3 4.3c1 1.1 2.6 2 3.4 1.9.9-.1 3.1.2 4.9.6 3.1.7 3.2.9 3.2 5.6 0 3.2.4 4.9 1.3 5 .6.1 3 .2 5.2.3 3.7.1 3.9.3 4.1 3.3.1 1.8-.2 3-.7 2.7-.5-.3-.9.2-.9 1 0 1.9 2 3.1 4.6 2.8 1.5-.2 2.3.4 2.7 1.7.4 1.6 1.3 2.1 4.1 2.1 2 0 3.6-.5 3.6-1 0-.6.8-1 1.8-1.1 1.3 0 1.2-.2-.5-.9-1.5-.6-2.3-1.8-2.3-3.4 0-1.4-.9-4.1-2.1-6l-2.1-3.6h2.1c2.4 0 2.7-1 .9-2.9-.7-.6-1.3-1.5-1.3-1.9 0-2.4-5-8.4-8.4-10.2-2.3-1.1-4.1-2.5-4.1-3 0-.6-.5-1-1.1-1-.6 0-.8.8-.4 1.9.3 1.1 0 2.1-.9 2.4-2.1.8-5.6-2.1-5.6-4.6 0-1.2-.9-3.6-2-5.2-2.7-4-2.5-5 .9-5.2 1.9-.1 3.6.6 5.1 2.3 1.3 1.3 2.9 2.4 3.7 2.4.7 0 1.3.6 1.3 1.4 0 2.1 5.6 4.1 7.5 2.6 1.5-1.3 3.5-.6 3.5 1.3 0 .7 1.6 1.7 3.5 2.3 3.7 1.2 4.8.1 1.6-1.6-1.1-.5-2.1-2.2-2.3-3.7-.2-2-.8-2.8-2-2.7-1 .1-1.8 0-1.8-.3 0-1.2 3.2-6.4 3.7-5.9.4.3 1.1.2 1.7-.2.6-.5 2.2-.6 3.6-.2 2.3.6 2.2.7-1.2 1.4-2.4.4-3.8 1.3-3.8 2.2 0 1.9 2.8 3 4.3 1.5 1.8-1.8 2.4-1.3 3.1 2.4.7 3.4 2.6 4.9 2.6 2 0-.8.4-1.5.9-1.5s.8-2 .7-4.4c-.1-3-.5-4.2-1.4-3.9-.8.4-1 0-.6-1.1.3-.9 1.2-1.6 2-1.6 1.7 0 1.8-1.2.2-2.8-.9-.9-.6-1.2 1.4-1.2 1.5 0 3-.5 3.3-1 1-1.6 2.8-1.2 2.1.5-.6 1.6 1 2 3.8.9 1.2-.5 1.3-1.1.5-2.7-.9-1.9-.8-1.9 1.1.2 1.2 1.4 1.9 3.3 1.7 4.3-.3 1.1.2 2.2 1.4 2.8 1.1.6 1.6 1.7 1.3 2.8-.5 1.5-.4 1.5.6-.1.9-1.5.8-2.2-.6-3.8-1.7-1.8-1.6-1.9 1.6-1.9 3.4 0 3.5-.4 1.5-5.3-.5-1.3-.2-1.7 1.3-1.7 1.2 0 2.4.4 2.7 1 .8 1.3 4.5 1.3 4.5-.1 0-.5-.4-.7-1-.4-.5.3-1.5.3-2.1-.1-.7-.4-.1-1.2 1.7-2 2.6-1.1 2.7-1.2.7-1.3-1.8-.1-2.2-.6-2.1-2.7.2-2.5.5-2.6 4.5-2.1 4 .4 4.2.3 3.7-1.8-.4-1.5 0-2.4 1-2.8 1.2-.5 1.6 0 1.6 2.2 0 3.6 3.7 7.3 5 5.1.6-.8 1-2.5 1-3.8 0-1.2.5-2.2 1.1-2.2.5 0 .7-.5.4-1-.3-.6.5-1.4 1.9-2 3.1-1.1 3.4-3 .6-3.7-1.1-.3-2-.9-2-1.3 0-1 4.7-3 7.1-3 3.8 0 7.6-6.8 4.9-8.5-.6-.4-.8-1.1-.4-1.6.3-.5 1-.7 1.5-.4.5.4 1.9.3 3 0 1.7-.6 2-1.2 1.5-3.8-.4-1.7-1.1-3.4-1.7-3.8-1.7-1 0-4.9 2.2-4.9 1 0 1.9-.6 1.9-1.4 0-.8.6-1.7 1.3-2 .9-.5.9-.7-.1-1.2-.7-.3-1.9-1.3-2.8-2.1-.8-.8-1.8-1.3-2.1-.9-.3.3-1.2.1-2-.5-.7-.7-2.6-.9-4.3-.5-1.7.3-3 .1-3-.4 0-1 1.6-1.5 7.1-2.4 2.1-.4 4.3-1.4 5-2.2 1.1-1.3 1-1.9-.8-3.2-1.1-1-2.3-2.5-2.6-3.5-.4-.9-1.3-1.7-2.2-1.7-.8 0-1.5-.4-1.5-.9s1.7-.7 3.9-.4l3.8.5.1-6c.1-5.2-.2-6.2-1.8-6.7-1.1-.3-2.9-1.9-4-3.5l-2-2.9 2-.6c1.7-.6 1.8-.8.6-2.1-.8-.8-1.9-1.4-2.5-1.4-.6 0-1.1-.8-1.1-1.9 0-2.6-2.7-4.8-4.2-3.3-1.7 1.7-2.8 1.5-2.8-.6 0-2.7-5.6-5.8-16-8.8-5.2-1.6-9.6-3.2-9.8-3.6-.5-1-6.3-.9-12.2.3zM426.3 214c-.3 1.1-1 2-1.7 2-.6 0 0 .9 1.3 1.9 3.6 2.8 2.3 4.3-2.1 2.2l-3.8-1.7 3-3.2c3.4-3.7 4-4 3.3-1.2zm7.7 8.1c0 .6-.4.7-1 .4-.5-.3-1-1.1-1-1.6 0-.6.5-.7 1-.4.6.3 1 1.1 1 1.6zm-7 16.9c0 .5-.4 1-1 1-.5 0-1-.5-1-1 0-.6.5-1 1-1 .6 0 1 .4 1 1zm-67.8 6c-.3 2.4-.9 3-2.9 3-1.3 0-3.1-.7-4-1.5-1.4-1.4-1.3-1.5 1.2-.9 2 .5 2.6.4 2.1-.5-.4-.7.2-1.5 1.6-2 1.3-.6 2.3-1 2.4-1 0-.1-.1 1.2-.4 2.9zm62.8 37c0 .5-.4 1-1 1-.5 0-1-.5-1-1 0-.6.5-1 1-1 .6 0 1 .4 1 1zM77 201c0 .5.5 1 1.1 1 .5 0 .7-.5.4-1-.3-.6-.8-1-1.1-1-.2 0-.4.4-.4 1zM119.3 201.5c-1.3.5-2.3 1.6-2.3 2.3 0 .9.7 1.1 2.3.6 2.8-.8 2.9-1 2.5-2.6-.2-1-.9-1-2.5-.3zM181.3 204.7c-2.6.5-2.9 1.3-1.1 3.1.9.9 1.4.7 2.5-.6 1.2-1.6 1.4-1.6 2.7 0 .7 1 2 1.8 2.9 1.8 1.6 0 3-2.6 2.1-4.1-.5-.9-5-1-9.1-.2zM177 207.4c0 .9.5 1.6 1 1.6.6 0 1-.4 1-.9 0-.6-.4-1.3-1-1.6-.5-.3-1 .1-1 .9zM209.2 209.9c-1.7 1-.6 6 1.5 6.8 1.9.8 3.7-1.2 2.7-2.9-.9-1.3-1-1.8-1.3-3.8-.1-1.2-1.1-1.3-2.9-.1zM312.2 218.4c-2.4 4.2-3.2 6.8-3.2 10.6 0 3.4.4 4.9 1.1 4.5.6-.4.8-1.3.5-2-.5-1.5 1.7-3.8 2.7-2.8 1.3 1.2.7 2.2-.9 1.6-1.5-.5-1.5-.3.1 2 1 1.6 2.2 2.4 2.9 1.9.6-.4 2.2-.7 3.6-.7 1.8 0 2.4-.5 2.2-1.8-.2-.9.3-1.7.9-1.7.7 0 1-.3.6-.6-1.2-1.3 2-3.2 4.5-2.7 1.4.3 2.9 0 3.2-.6.4-.6 1.6-1.1 2.6-1.1 1.3 0 1.7-.5 1.4-1.5-.4-1 0-1.5 1.2-1.5 1.3-.1.9-.5-1.2-1.4-1.7-.8-3.4-2.1-3.7-3-.4-1.1-1.6-1.5-3.5-1.3-4.6.5-5.4 1.5-4.7 5.6.5 3.3.3 4-1.9 5.4-3.6 2.4-4.3 2.1-3.8-1.3.3-2.3 0-3-1.2-3-.9 0-1.6-.6-1.6-1.4 0-1.7 2.4-3.8 3.3-2.9 1.1 1.1.7-1.1-.7-3.6-1.3-2.3-1.3-2.2-4.4 3.3zM70.8 215.2c-3.6 1.3-3.5 2.3.2 2.4 2.3.1 3-.3 3-1.7 0-1.1-.1-1.9-.2-1.8-.2 0-1.5.5-3 1.1zM352 218c0 .5.5 1 1.1 1 .5 0 .7-.5.4-1-.3-.6-.8-1-1.1-1-.2 0-.4.4-.4 1zM67 222.5c0 1.5 1.8 4 2.4 3.4.3-.3-.1-1.4-.9-2.5-.8-1-1.4-1.5-1.5-.9zM101 223c0 .5.5 1 1 1 .6 0 1-.5 1-1 0-.6-.4-1-1-1-.5 0-1 .4-1 1zM337.5 225c.3.5 1.1 1 1.6 1 .6 0 .7-.5.4-1-.3-.6-1.1-1-1.6-1-.6 0-.7.4-.4 1zM72.5 230c-1.6 1.8-1.7 2.3-.5 3 1.1.7 1.7.3 2.3-1.2 1.2-3.3.3-4.2-1.8-1.8zM105 231.5c-1.4 1.6-1 1.8 1.4.9.9-.3 1.6-1 1.6-1.5 0-1.4-1.6-1.1-3 .6zM102.1 234.6c0 1.1.3 1.4.6.6.3-.7.2-1.6-.1-1.9-.3-.4-.6.2-.5 1.3zM76.8 235.7c.7.3 1.6.2 1.9-.1.4-.3-.2-.6-1.3-.5-1.1 0-1.4.3-.6.6zM107.8 236.5c-1.1 1.1 1.4 5.6 2.8 5.1.8-.3 1.6-.1 1.9.4.4.6-.1 1-1 1s-1.3.5-1 1.1c.4.6 1.3.8 2.1.5.8-.3 1.4-.1 1.4.4 0 .6.4 1 .9 1s.5-1.4-.1-3.3c-.6-1.7-1.3-3.9-1.5-4.7-.4-1.3-.6-1.2-1.4.2-1.3 2.4-2.7 2.3-3.1-.3-.2-1.1-.6-1.8-1-1.4zM87.5 239c-.3.5.1 1 .9 1 .9 0 1.6-.5 1.6-1 0-.6-.4-1-.9-1-.6 0-1.3.4-1.6 1zM75.7 239.7c-.4.3-.7 1.1-.7 1.7 0 .6.5.5 1.2-.2.6-.6.9-1.4.7-1.7-.3-.3-.9-.2-1.2.2zM194.1 241.6c0 1.1.3 1.4.6.6.3-.7.2-1.6-.1-1.9-.3-.4-.6.2-.5 1.3zM197 242.4c0 .9.5 1.6 1 1.6.6 0 1-.4 1-.9 0-.6-.4-1.3-1-1.6-.5-.3-1 .1-1 .9zM302.7 241.7c-1 .9-.9 4.3.1 4.3 1.2 0 3.2-2.3 3.2-3.7 0-1.4-2.2-1.8-3.3-.6zM312.1 245c-1.3 1.1-1.9 2-1.3 2 1 0 4.2-2.7 4.2-3.6 0-.7-.4-.5-2.9 1.6zM100.5 245.1c-.4.6-.4 1.3-.1 1.6.8.8 3.6-.5 3.6-1.7 0-1.3-2.7-1.3-3.5.1zM132 249.6c0 1.1 2.9 3.4 3.4 2.6.2-.4-.4-1.3-1.5-2-1-.7-1.9-1-1.9-.6zM148 252.5c0 .8.4 1.5.9 1.5s1.4-.7 2.1-1.5c1-1.3.9-1.5-.9-1.5-1.2 0-2.1.6-2.1 1.5zM157 254.6c0 .8.5 1.2 1 .9.6-.4.8-1.1.5-1.6-.9-1.4-1.5-1.1-1.5.7zM95 256.6c0 1.1 6.5 6.4 7.8 6.4 1.2 0 1.2-.3.2-1.5-.7-.8-1.8-1.5-2.4-1.5-.6 0-1.7-.9-2.4-2-1.1-1.8-3.2-2.8-3.2-1.4zM150.5 257.4c-1.1.7-1.6 2-1.2 2.9.7 1.8-2.6 3-4.2 1.4-.8-.8-1.1-.8-1.1.1 0 .7.5 1.2 1 1.2.6 0 .8 1.1.4 2.7-.6 2.4-.5 2.6 1.7 2 1.3-.4 2.7-.7 3.2-.7.4 0 .7-1.4.7-3.2 0-1.7.7-3.9 1.6-4.9 1.9-2.1.3-3.3-2.1-1.5zM76 259.1c0 .8.9 2 2 2.7 1.2.7 1.8 1.7 1.5 2.2-.3.6-.1 1 .4 1 .6 0 1.1-1.2 1.1-2.7 0-1.4-.3-2.3-.7-2-.3.4-1.5 0-2.5-1-1.4-1.3-1.8-1.3-1.8-.2zM266.7 258.6c-.3.4-.3 2 0 3.7.4 2.1.3 2.8-.5 2.3-.7-.4-1.2-1.4-1.2-2.2 0-1.1-.8-1.4-2.7-1.2-2.2.2-2.8.8-2.8 2.8-.1 2.1-.5 2.5-2.8 2.2-2.2-.2-2.7.1-2.7 2 0 2-.1 2.1-1.6.6s-1.8-1.4-3.5.3c-1 1-1.9 2.7-1.9 3.6 0 2.6-1.6 4.8-2.4 3.4-1.4-2.3-2.8-1.1-2.2 1.9.5 2.9-.6 4.1-1.9 2-1.2-1.9-2.3-1-3.6 2.7-.9 2.5-1.4 3.2-1.7 2-.7-3.5-3.2-1-3.2 3.4 0 1.5-.5 1.8-2.4 1.3-2.8-.7-3.6 1.3-3.6 9.5 0 3.5-.6 6.1-1.5 7.1-1.3 1.4-1.4 2.2-.4 4.3.9 2.1.9 3-.1 4.2-1.8 2.2-3.3 1.8-2-.5.6-1.1.8-3.5.5-5.4-.5-2.5-.3-3.5.9-3.9 1.8-.7 2.2-8.1.7-10.6-1-1.5-1.3-.7-2.6 5.6-.7 3.6-3.5 4.6-3.5 1.3 0-1.1-.4-2-1-2-1.6 0-1.2 4.3.6 6.8 1.6 2.3 1.3 5.2-.6 5.2-.5 0-1-1.4-1-3 0-2.1-.5-3-1.6-3-1.3 0-1.5.7-.9 3.7.3 2.1 1.3 4.3 2.1 4.9 1.6 1.3 1.9 4.4.4 4.4-.5 0-1-.5-1-1 0-.6-.4-1-1-1-.5 0-1 .7-1 1.5 0 1.8-2.6 2-3.3.2-.4-.9-.6-.9-.6.1-.2 2.4 2 5.4 3.5 4.8 1-.4 1.4.2 1.4 1.9 0 2.9-.7 3.1-3.1.9-2.4-2.2-3.9-1-3.9 3.2 0 2.1.4 3.3 1 2.9.6-.3 1 .1 1 .9 0 .9-.7 1.6-1.5 1.6s-1.5.4-1.5 1c0 .5-.5 1-1.1 1-.7 0-.8-.7-.4-1.8 1-2.2 1.3-9.2.4-9.2-.4 0-.9.6-1.1 1.2-.3.8-.9.4-1.7-1-.6-1.2-1.8-2.2-2.6-2.2-1.9 0-1.9 1.4 0 3 1.7 1.5 2 6.6.4 7.6-1.1.7-2.9-1.3-2.8-3.1 0-.6.3-.4.6.2.7 1.9 2.3 1.6 2.3-.5 0-1.9-1.8-4.2-3.2-4.2-.4 0-.8.7-.8 1.5 0 1-.7 1.5-1.7 1.3-1.3-.2-1.7.3-1.6 1.9.2 1.3-.2 2.3-.7 2.3-.6 0-1 1.3-1 3 0 1.6-.3 3-.6 3-1 0-3.3-2.7-2.8-3.3.3-.3-.4-.8-1.5-1.2-1.2-.3-2.1-1.1-2.1-1.6s-.7-.9-1.5-.9c-1 0-1.5.9-1.4 2.7 0 2.4.2 2.5.8.9.5-1.4 1-1.6 1.5-.8 1.1 1.8-.4 3.4-2.6 2.8-2.9-.7-5.1 1.9-4.4 4.9.8 3.2-1.5 3.4-2.9.3-1.6-3.5-4.2-3.4-5 .1-.5 2.4-1.2 3.1-3 3.1-1.7 0-2.5.6-2.7 2.2-.4 2.9-2.4 3.4-3.1.8-.3-1.1-1-2-1.7-2-1.3 0-.3 4.3 1.1 4.8 1.2.5 1.1 4.2-.1 4.2-.5 0-1 .9-1 2 0 2.5 1.7 2.6 2.3.2.3-1.4.6-1.2 1.5.9 1 2.5 4.2 4.8 4.2 3 0-.5-.4-1.1-.8-1.3-1.2-.4-2.5-5.8-1.4-5.8s3 5.6 3.7 11c.5 3.9.4 4.2-.7 2.6-.7-1-2.1-2.8-3-4l-1.7-2.1v2.5c0 2.6 3 7 4.8 7 .6 0 1.1.7 1.1 1.6 0 1.4-.3 1.5-1.7.3-4.2-3.1-7.5-7.5-7.5-9.6 0-2.6-1.3-3.1-2.2-.7-1.1 2.7-.6 5.4.8 5.4.8 0 1.6 1 1.8 2.2.2 1.3.8 2.3 1.3 2.2.6-.1 1.8 1.2 2.8 2.8 1.3 2.2 2.1 2.7 3 1.9 1-.8 1.3.3 1.5 4.6.2 3.5.8 6 1.7 6.7.9.7 1.6 3 1.7 6.1.1 3.2.7 5.4 1.7 6.2 1.2.9 1.2 1.2.3 1.3-1 0-1.2 1.3-.6 5.7.6 5.3 1.6 7.2 3.7 7.3.4 0 .7-.8.7-1.7 0-1.3.3-1.4 1.2-.5.9.9.9 1.5 0 2.4-1.5 1.5-1.6 4.8-.2 4.8.6 0 1 1.1 1 2.5 0 1.8.5 2.5 2 2.5 2.5 0 2.6-2.6.3-5.2-1.5-1.7-1.5-1.8 0-1.8 1 0 1.7-.8 1.7-1.8 0-1.4.4-1.2 1.9.8 1.1 1.3 1.9 2.7 1.9 3-.2 2.5.4 4 1.7 4 .8 0 1.5.7 1.5 1.5 0 1.2-.4 1.3-1.9.5-2.8-1.4-3.8-1.3-6 1.2-1.8 1.8-2.2 1.9-3.7.7-1.7-1.3-1.7-1.2-.1 1.2 1 1.4 2.9 3.1 4.2 3.7 2.4 1.1 2.5 1 1.5-.7-.5-1.1-1-2.5-1-3.1 0-1.8 2 0 3 2.6.5 1.3 1.5 2.4 2.2 2.4.9 0 .9-.3 0-1.2-1.6-1.6-1.5-2.8.1-2.8 1.1.1 4.2 5.8 6.1 11.5.7 1.9.8 1.9 2-.4.8-1.4 1.6-1.9 2-1.3.3.6.2 1.3-.4 1.7-1.5.9-1.2 2.8.4 2.2.7-.3 1.9 0 2.5.6.7.7 1.7 1.2 2.4 1.2s1.1 1 .9 2.4c-.2 1.5 0 2.1.7 1.7.6-.4 1.1-.3 1.1.2s1.1 1.2 2.5 1.5c1.8.3 2.9-.1 3.6-1.5.5-1 1.4-1.6 1.9-1.3.4.3 1 0 1.2-.6.6-1.7 5.9.8 6.5 3.1.3 1.1 1 1.7 1.5 1.4.5-.3 1.5.2 2.3 1.2 1.3 1.8 1.4 1.8 3.5-.1l2.3-2-.7 2.2c-.8 2.6 1.1 3.3 2 .8.4-.8 1.5-1.5 2.5-1.5s1.9-.5 1.9-1c0-.6.7-1 1.5-1 1.9 0 1.9-.9-.2-3.2-1.5-1.7-1.5-1.8.2-1.8 1.3 0 1.6-.5 1.1-2.4-.4-1.6-.1-2.6.8-2.9 1.1-.4 1.3.3.9 3.4-.5 3.8.7 5.3 2.3 2.8.4-.8.9-.7 1.4.2.5.7 2.9 1.8 5.4 2.4 3.8 1 4.8.9 5.8-.2.9-1.1.7-1.5-1-2-2.9-.7-2.8-2.1.3-3.3 1.4-.5 2.5-1.6 2.5-2.5 0-.8.5-1.5 1-1.5.6 0 1 .4 1 1 0 .5.7.7 1.5.4.8-.4 1.5-.2 1.5.4 0 .5-.8 1.3-1.7 1.6-1.2.5-1.4.9-.5 1.8 1.4 1.4 1.6 5.2.3 4.4-.4-.3-1.6.3-2.5 1.3-1.7 1.8-1.6 2 .3 2.6 2.4.7 5.1-1.4 5.1-3.9 0-.9.5-1.6 1-1.6.6 0 1 1 1 2.2 0 2 .1 2 1.9.3 2-1.7 2-1.6.9 2.1-.6 2.2-1.6 4.7-2.4 5.8-1.1 1.6-1 2.1.1 3.2.7.8 2 1.4 2.8 1.4.9 0 1.7.5 1.9 1.2.6 1.6 11.7-5.2 11.8-7.2.1-.9.5-.6 1 .7.5 1.3 1.2 2.3 1.4 2.3 1.7 0 5.6-2.5 5.6-3.7 0-.7.9-1.3 2-1.3 2.2 0 2.6 2 .8 3.8-2 2 .2 1.3 2.4-.8 1.2-1.1 1.9-2.3 1.5-2.7-.4-.3.5-1.4 2.1-2.3 3.1-2 4.6-.7 2.9 2.3-.9 1.5-.9 2.1 0 2.4 1.6.6-.2 5.1-3 7.5-2.8 2.6-.2 3.3 6.8 1.8 5.6-1.2 5.7-1.2 5.1-4.1-.4-2.3-.2-3.1 1.2-3.5.9-.3 2.5-1 3.4-1.5 2.5-1.3 2.8-1.2 2.8 1.1 0 1.3.7 2 2 2 2.3 0 2.6-1.3.6-2.9-.8-.7-1.2-2.1-.9-3.1.7-2.5-1.2-2.6-2.6-.3-.9 1.6-1 1.6-1.1-.5 0-1.3.6-2.2 1.5-2.2.8 0 1.5-.6 1.5-1.4 0-2 2.2-2.5 3.9-.8 1.3 1.2 1.6 1.2 2.8-.4 1.2-1.6 1-2.1-1.4-4.2-2.5-2.1-2.8-2.2-4-.6-1.1 1.6-1.3 1.6-1.9.1-.7-2-3.5-2.2-5.2-.5-.7.7-1.2.8-1.2.2 0-1.8 4.8-3.7 7.8-3.1 2.6.5 3.1.3 3.6-1.8.7-2.9 1.5-3.1 4.2-1.1 1.8 1.4 1.8 1.5.2 2.1-2.6 1-2.2 2.5.7 2.5 1.4 0 2.5-.4 2.5-.9s1.4-1.2 3-1.6c4.1-.9 3.8-2.5-.5-2.5-2.7 0-3.3-.3-2.9-1.5.4-.9 1.4-1.3 2.3-1.1.9.3 2.2.2 3-.3 2-1.3-.5-2.4-3.6-1.6-2.3.5-2.5.4-1.4-.9.7-.8 1.1-2.2.9-3.2-.2-.9.3-1.9 1-2.1.6-.3 1.2 0 1.2.6s.9 1.1 1.9 1.1c1.1 0 2.1.6 2.4 1.2.3.9.9.7 2-.7 1.4-1.8 1.4-2-.3-2.3-1.8-.3-3.2-4.3-2.1-6 .3-.4 1.4-1.2 2.5-1.5 1.5-.6 1.7-.4 1.2 1.8-.6 2.3-.5 2.4 1.9 1.3 1.4-.6 2.5-1.5 2.5-2 0-.4.5-.8 1-.8.6 0 1 .6 1 1.4 0 .8.7 1.7 1.6 2 .9.4 1.4.9 1.1 1.3-.4.3-1.3.1-2-.6-2.5-2-4.4-.2-5.1 4.9-.4 2.7-1.1 5.2-1.6 5.5-1.8 1.1-1 2.6 1.3 2.3 1.9-.3 2.2-1 2.5-5.1.2-3.6.7-4.7 2-4.8.9 0 3.2-.1 5-.2 1.7-.1 3.2.1 3.2.5 0 1-4.2 2.2-6.4 1.9-1.1-.2-1.7.2-1.4 1 .2.7 2.6 1.3 5.7 1.5 2.9.1 5.5.5 5.8.8 1.1 1.1-1 2.6-3.8 2.6-1.6 0-2.9.4-2.9 1 0 .5.7.7 1.5.3.9-.3 2.4.2 3.4 1.1 1.5 1.4 2 1.4 3 .3.6-.8.9-2.1.6-2.9-.4-1 .1-1.7 1.4-2.1 2.7-.7 2.7-3.2-.1-5.1l-2.1-1.5 2.6-1c1.4-.6 3.1-2 3.7-3.2 1.1-2 1.1-2.1-1.6-1.5-1.6.4-3.6 1.3-4.4 2-2.2 2-7.3 3-6.8 1.4.3-.7 1.5-1.5 2.9-1.8 1.6-.4 2.3-1.2 2.1-2.4-.3-1.5.1-1.7 2.2-1.2 1.9.5 2.6.2 2.6-.8 0-2.5 2.8-4 5.3-2.8 2.1 1 2.1 1.1-.7 1.1-4.1.1-2.3 1.4 5.5 3.9 7 2.4 9.9 2.7 9.9 1.3 0-1.1-2.5-2.1-5.1-2.1-2.6 0-4.7-4.4-3-6.4 1-1.2.5-1.8-3-3.7-5.5-2.8-3.5-4.1 4.1-2.7 3 .5 6.3 1.1 7.3 1.2.9.1 2.3.8 2.9 1.4.7.7 1.7 1.2 2.3 1.2.6 0 2.8 1.6 4.9 3.5 2.5 2.2 3.3 3.5 2.3 3.5-.9 0-1.9-.5-2.2-1-.8-1.3-6.5-1.3-6.5 0 0 1.2 3.5 3.1 4.4 2.3.3-.3.6.1.6 1s.5 1.9 1 2.2c1.5.9 5-.4 5-2 0-2 1.9-2.8 3.5-1.5.8.6 1.6.7 1.9.2.7-1.2-.6-2.3-6.4-5-3.9-1.9-4.1-2.2-1.9-2.2 1.5 0 5.4 1.8 8.7 4 7.1 4.8 8.6 5.1 7 1.4-.8-1.7-1.8-2.4-3-2.1-1 .3-1.8 0-1.8-.7 0-2.3-3.7-4.8-6-4.1-1.9.6-2 .5-.9-1.3.7-1.2 1.7-1.8 2.3-1.5.5.4.7-.1.3-1-.3-1-.2-1.7.4-1.7.6 0 .8-.9.4-2.3-.6-1.8-.5-2 .6-1 .7.7 1.2 2.6 1.2 4.3 0 2.3.8 3.7 2.9 5.1 1.5 1.1 2.8 1.5 2.8.9 0-1.6-3.9-9-6.7-12.8-1.4-1.8-2.2-3.9-1.9-4.7.3-.8.1-1.7-.4-2-.6-.4-1 .8-1 2.7 0 2.5-.3 2.9-1 1.8-1.6-2.5-1.2-8 .5-8 1.3 0 1.2-.7-.6-4.3-1.9-3.7-2.3-4-3-2.2-.6 1.6-.8 1.7-.8.3-.2-3.1-2-2.9-3.7.3-1.4 2.8-1.8 3-2.6 1.6-1.1-2.1-2.8-2.2-2.8-.2 0 2.1-.9 1.9-3.1-.8-1.3-1.5-1.8-3.8-1.9-7.5 0-3.3-.4-5.1-1-4.7-1.6 1-1.2-4.3.6-7 .9-1.4 1.4-3.2 1-4-.6-1.7-3.6-2.1-3.6-.4 0 .5-.5.7-1 .4-.6-.4-.8-1.5-.5-2.6.8-2.4-1-2.5-5.4-.3-1.8.9-3.5 1.4-3.8 1.1-.3-.4.6-.9 2.1-1.3 2.1-.5 2.6-1.2 2.6-3.5 0-1.9-.5-2.9-1.5-2.9-.8 0-1.5-.7-1.5-1.5s-.7-1.5-1.5-1.5c-1 0-1.5 1-1.5 3.1 0 2.5-.3 2.9-1.3 2-.8-.6-1.7-.8-2-.4-.4.3-.7.1-.7-.5 0-.5.5-1.2 1.2-1.4.7-.3 1.3-1.5 1.4-2.9.1-1.3.7-3.7 1.3-5.3 1.3-3.3 1-4-1.7-3.2-1.2.4-1.8 1.4-1.7 2.9.1 1.2 0 1.5-.2.6-.2-1-2.1-2-4.5-2.5-2.3-.5-4.3-1.5-4.6-2.3-.3-.9.2-1.1 1.7-.6 2.3.7 5.5-1.1 4.5-2.6-.3-.5-2.5-.9-5-.9-4.2 0-4.4.1-4.4 2.9 0 3.1 3 6.1 6.1 6.1 1.9 0 5.2 3.4 4.2 4.3-1 1-2.5.8-1.9-.2 1.2-1.9-2.4-3.4-7-2.8-4.4.5-6.7 2.1-6.1 4.1.5 1.6 2.7 1.9 2.7.4 0-1 1-1.3 3.3-1 3.1.3 3.3.6 2.9 3.4-.4 2.9-.4 2.9 3.2 2.3l3.6-.7-1.7 3.1c-1 1.7-2.1 3.1-2.5 3.1-.9 0-4.8-6.9-4.8-8.6 0-.9-.6-1.4-1.2-1.1-.8.2-1.2 1.7-1 3.5.2 1.8-.3 4.1-1.1 5.2-1.4 2.1-1.4 2.1-2-.2-.4-1.3-.2-2.5.3-2.6.6-.2 1-1 1-1.9 0-1-.6-1.2-2-.8-1.6.5-1.9.3-1.3-1.2.6-1.5.4-1.6-.9-.6-2.3 1.9-2.8.5-2.2-5.2.6-4.8.5-5.3-1.6-5.8-1.6-.4-2-1.1-1.6-2.5.5-1.5.1-2.1-1.6-2.6l-2.3-.7 2.3-.9c2.8-1.2 2.8-1.9-.2-4.8-2.3-2.1-2.5-2.2-3.5-.5-1 1.7-1 1.6-1.1-.3 0-2.7 1.7-4 5.4-4.2 3.6-.2 4.3-.9 2.8-2.4-.9-.9-1.7-1-3-.1-1.5.9-2.1.7-3-.7-.6-1-.8-2.7-.5-3.8.4-1.7 0-2.1-2.3-2.4-1.5-.2-3-1-3.2-1.8-.5-1.3-.3-1.3 1.2 0 1.6 1.2 2 1.1 3.7-1 2.2-3 1.9-4.6-.9-4.3-1.5.2-1.9-.2-1.5-1.6.6-2.4-1.5-3.8-2.3-1.6-.9 2.3-2.6-.3-1.8-2.8.3-1-.1-1.9-1-2.3-.9-.3-1.6-1.4-1.6-2.4 0-2.2-1.6-3.5-2.5-2-1.1 1.8-2 1.1-2.1-1.8-.1-2.5.2-2.8 2.3-2.4 1.8.3 2.3 0 2.3-1.5 0-2.8-.7-3.2-3.8-2.4-2.2.6-3.5.1-6.9-2.7-4.3-3.5-5.3-5.6-3-6.5.7-.3.2-.9-1.3-1.5-1.4-.6-2.1-1.1-1.5-1.1.5-.1-1.4-2.4-4.4-5.2-3.5-3.3-6-4.9-7.2-4.6-1 .3-2-.1-2.3-.9-.3-.8-1.2-1.4-2.1-1.4-.8 0-1.5-.5-1.5-1 0-1.4-2.8-1.2-3.3.2-.3 1-.7 1-1.9 0-.8-.6-3.4-1.3-5.6-1.5-2.3-.1-4.4-.6-4.8-1-1.1-1.1-4.4-.8-4.4.3 0 .5-.7 1-1.5 1s-1.5-.5-1.5-1c0-1.1-1.3-1.3-2.3-.4zm-28 32.9c-.4.8-1.1 1.5-1.7 1.5-.7 0-.7-.6 0-2.1 1.3-2.3 2.6-1.9 1.7.6zM186 338.2c0 .7.3 2.4.6 3.8l.5 2.5-1.5-2.5c-1.8-2.9-2-5-.6-5 .6 0 1 .6 1 1.2zm-14 8.9c0 1.7-2 2.9-2 1.1 0-.4-.3-1.8-.7-3.2-.6-2.2-.5-2.4 1-1.1.9.7 1.7 2.2 1.7 3.2zm-4 6.9c1.1.6 1.7 1.7 1.4 2.5-.9 2.2-4.4-2.6-4.3-5.7l.2-2.3.4 2.3c.2 1.2 1.3 2.7 2.3 3.2zm33-4c0 .5-.4 1-1 1-.5 0-1-.5-1-1 0-.6.5-1 1-1 .6 0 1 .4 1 1zm-2.8 8.5c0 .5-.5 1.1-1 1.3-.5.1-.9-.4-.9-1.3s.4-1.4.9-1.3c.5.2 1 .8 1 1.3zm34.3 1c0 1-.6 2-1.2 2.2-.8.3-1.3-.5-1.3-2.2 0-1.7.5-2.5 1.3-2.3.6.3 1.2 1.3 1.2 2.3zm122.8 1.2c-.6 1.9-3.2 4.3-4.5 4.3-.4 0-.8-.9-.8-2 0-1.3.5-1.8 1.5-1.4.9.4 1.5 0 1.5-1 0-.9.7-1.6 1.5-1.6.9 0 1.2.6.8 1.7zm-112.9.9c.9 2.4-.4 3.2-1.6 1.1-.9-1.8-1-1.8-2.4 0-1.1 1.3-1.4 1.4-1.2.3.6-3.1 4.2-4 5.2-1.4zm6.6 0c0 .8-.5 1.2-1 .9-.6-.4-.8-1.1-.5-1.6.9-1.4 1.5-1.1 1.5.7zm-53 2.5c0 1.8-.4 2.8-1 2.4-.6-.4-.8-1.1-.5-1.6.4-.5 0-.9-.9-.9-.8 0-1.6.6-1.9 1.2-.2.7-.8 1-1.2.6-.8-.7 3.2-4.7 4.8-4.8.4 0 .7 1.4.7 3.1zm3.5-.1c.3.5.1 1-.4 1-.6 0-1.1-.5-1.1-1 0-.6.2-1 .4-1 .3 0 .8.4 1.1 1zm19.5 5c0 .5-.5 1-1.1 1-.5 0-.7-.5-.4-1 .3-.6.8-1 1.1-1 .2 0 .4.4.4 1zm-30.3 4.6c-.3.3-1.2.4-1.9.1-.8-.3-.5-.6.6-.6 1.1-.1 1.7.2 1.3.5zm50.6 4.9c2.9.5 3.7 1 3.5 2.3-.2.9-1.3 1.8-2.5 2-1.2.2-2.6.9-3.2 1.6-1.1 1.3-6.1 1-6.1-.4 0-.4 1.2-.5 2.6-.2 2 .4 2.5.1 2.2-.9-.3-.8-1.4-1.3-2.4-1.2-1.4.1-1.9-.5-2-2.2-.2-2 .2-2.4 2-2 1.1.2 3.8.7 5.9 1zm-51.6.1c-.3.3-1.2.4-1.9.1-.8-.3-.5-.6.6-.6 1.1-.1 1.7.2 1.3.5zm5.3 1.4c0 .5-.7 1-1.6 1-.8 0-1.2-.5-.9-1 .3-.6 1-1 1.6-1 .5 0 .9.4.9 1zm33.5 1c.3.5.1 1-.4 1-.6 0-1.1-.5-1.1-1 0-.6.2-1 .4-1 .3 0 .8.4 1.1 1zm147.5 0c0 .5-.2 1-.4 1-.3 0-.8-.5-1.1-1-.3-.6-.1-1 .4-1 .6 0 1.1.4 1.1 1zm3.5 0c.3.5.1 1-.4 1-.6 0-1.1-.5-1.1-1 0-.6.2-1 .4-1 .3 0 .8.4 1.1 1zm-159 1c-.3.5-1.8 1-3.3.9l-2.7-.1 2.5-.8c3.5-1.1 4.2-1.1 3.5 0zm10.5 2c0 .5-.7 1-1.6 1-.8 0-1.2-.5-.9-1 .3-.6 1-1 1.6-1 .5 0 .9.4.9 1zm-26 1c0 .5-.5 1-1.1 1-.5 0-.7-.5-.4-1 .3-.6.8-1 1.1-1 .2 0 .4.4.4 1zm46 2.6c0 .2-.9.4-2 .4s-2-.4-2-.9.9-.7 2-.4c1.1.3 2 .7 2 .9zm7 1.5c1.1 1.9 1 2-1 .9-1.1-.6-1.8-1.5-1.5-2.1.9-1.3 1.3-1.1 2.5 1.2zm-19.5.5c-.9.9-1.8 1.4-2.1 1.1-.9-.9.6-2.7 2.2-2.7 1.3 0 1.3.2-.1 1.6zm15.1 6.4c0 1.1-.1 2-.2 2s-1-.3-1.8-.6c-1.3-.5-1.4-.9-.5-2 1.6-2 2.5-1.7 2.5.6zm-8.6.4c0 .3-.4.8-1 1.1-.5.3-1 .1-1-.4 0-.6.5-1.1 1-1.1.6 0 1 .2 1 .4zm19 3.8c0 .6-.7.5-1.5-.2s-1.5-1.7-1.5-2.2c0-.6.7-.5 1.5.2s1.5 1.7 1.5 2.2zm-6-1.2c0 .5-.2 1-.4 1-.3 0-.8-.5-1.1-1-.3-.6-.1-1 .4-1 .6 0 1.1.4 1.1 1zm-7 1c1.1.7.3 1-2.8 1-5 0-4.8 1.6.3 2.6 1.9.3 3.5.9 3.5 1.3 0 1.7-1.4 1.9-3.4.6-1.1-.8-3.7-1.5-5.7-1.5-3.2 0-3.6-.3-3.2-1.9.7-2.6 8.4-4 11.3-2.1zm9.4 2.6c.9.3 1.6 1 1.6 1.4 0 1-3.8.1-4.6-1.1-.6-1 .7-1.2 3-.3zm-32.5 1.3c2.3 1.5-.3 2-2.9.5-2.2-1.2-2.3-1.3-.5-1.3 1.1-.1 2.6.3 3.4.8zm-48.5 2.3c-.1 1.3-.3 3.2-.4 4.3l-.1 2-.9-2c-1.3-3.1-1.1-6.5.3-6.5.8 0 1.3.9 1.1 2.2zm219.1 1.8c.3.5.2 1-.4 1-.5 0-1.3-.5-1.6-1-.3-.6-.2-1 .4-1 .5 0 1.3.4 1.6 1zm-204.1 6.7c-.1 4.2-1.8 6.3-3.6 4.4-1.1-1-1-1.4.5-2.2 2.1-1.2 2.3-3.3.1-2.5-2 .8-3.5-.1-2.8-1.7.2-.7 1.7-1.2 3.2-1.3 2.4-.1 2.7.2 2.6 3.3zm142.7 2.6c1-.3 1.9 0 1.9.6 0 1.2-1.4 1.4-4.7.5-2.6-.7-2.9-2.3-1-4.3 1-1 1.3-.7 1.5 1.2.2 1.9.8 2.4 2.3 2zm-8.1-1.4c0 .6-.4 1.3-1 1.6-.5.3-1-.1-1-.9 0-.9.5-1.6 1-1.6.6 0 1 .4 1 .9zm-11.2 5.9c.2.7-.3 1.2-1.2 1.2-.9 0-1.6-.7-1.6-1.6 0-1.7 2.2-1.4 2.8.4zm37.9-.2c-.3.3-1.2.4-1.9.1-.8-.3-.5-.6.6-.6 1.1-.1 1.7.2 1.3.5zm-45.7 3.9c-.7.8-1.7 1.5-2.3 1.5-.5 0-.2-.9.8-2 2.1-2.3 3.5-1.9 1.5.5zm11 1.5c0 .5-.5 1-1.1 1-.5 0-.7-.5-.4-1 .3-.6.8-1 1.1-1 .2 0 .4.4.4 1zm-23.5 4c.9 0 1.2.6.9 1.5-.4.8-.1 1.5.5 1.5s1.1.7 1.1 1.5c0 2.6-2.7 1.6-4-1.5-.7-1.7-1.6-3-2.1-3s-.9-.7-.9-1.6c0-1.4.1-1.4 1.6 0 .8.9 2.2 1.6 2.9 1.6zm-85.1-.8c-.5.8-.2.9.9.5.9-.3 1.9-.2 2.2.3.4.6.2 1-.4 1-.5 0-1.6.3-2.5.6-1.2.4-1.6 0-1.6-1.5 0-1.2.5-2.1 1.1-2.1.5 0 .7.5.3 1.2zm93.6-.8c0 .3-.4.8-1 1.1-.5.3-1 .1-1-.4 0-.6.5-1.1 1-1.1.6 0 1 .2 1 .4zm7.7 4.8c-.3.8-.6.5-.6-.6-.1-1.1.2-1.7.5-1.3.3.3.4 1.2.1 1.9zm6.7-1.4c.6 1-2.2 4.7-3 4-.3-.4-.3-1.6.1-2.7.6-2.1 2-2.7 2.9-1.3zm5.1 4.9c-1.1.7-2.2 1.3-2.7 1.3-1.4 0-.8-1.9.9-2.9 2.5-1.3 4-.1 1.8 1.6zm-68.1 1.5c-.6 3.1-2.8 5.7-4.8 5.8-.5 0-.2-.8.6-1.8.8-.9 1.8-2.9 2.2-4.5.3-1.5 1.1-2.7 1.7-2.7.7 0 .8 1.2.3 3.2zm-11.4-1.3c0 .5 1 .7 2.3.4 1.7-.5 1.9-.3 1.1.7-.7.6-2 1-3 .8-1.9-.3-3.2-2.8-1.5-2.8.6 0 1.1.4 1.1.9zm42 2.1c0 .5-.4 1-1 1-.5 0-1-.5-1-1 0-.6.5-1 1-1 .6 0 1 .4 1 1zm-53 1c0 .5-.4 1-1 1-.5 0-1-.5-1-1 0-.6.5-1 1-1 .6 0 1 .4 1 1zm34.2 1.2c-.7.7-1.2.8-1.2.2 0-1.4 1.2-2.6 1.9-1.9.2.3-.1 1.1-.7 1.7zm41.8.4c0 .8-.5 1.2-1 .9-.6-.4-.8-1.1-.5-1.6.9-1.4 1.5-1.1 1.5.7zm-11 4.6c0 1-.4 1.8-1 1.8-.5 0-1-.9-1-2s-.7-2-1.6-2c-.8 0-1.2-.4-.9-1 .9-1.4 4.5 1.1 4.5 3.2zm-8.7-2.1c-.8.8-1.6.8-3 0-1.6-.9-1.4-1 1.2-1.1 2.1 0 2.6.3 1.8 1.1zm14.7-.1c0 .5-.7 1-1.5 1s-1.5-.5-1.5-1c0-.6.7-1 1.5-1s1.5.4 1.5 1zm5.3 2.5c-1.2.9-1.9 1-2.2.3-.4-1.2 2-2.9 3.2-2.1.4.3 0 1.1-1 1.8zm9.7 1.5c0 .5-1.4 1-3.1 1-1.7 0-2.8-.4-2.4-1 .3-.6 1.7-1 3.1-1 1.3 0 2.4.4 2.4 1zm-31 2c0 1.1-.2 2-.4 2s-.6-.9-.9-2c-.3-1.1-.1-2 .4-2s.9.9.9 2zm13-.6c0 .3-.4.8-1 1.1-.5.3-1 .1-1-.4 0-.6.5-1.1 1-1.1.6 0 1 .2 1 .4zm-4.6 2.1c.4 1.1-.2 1.5-2.4 1.5-4.6 0-3.8-2 1.1-2.9.4 0 .9.6 1.3 1.4zm15.6.1c0 .8-.5 1.2-1 .9-.6-.4-.8-1.1-.5-1.6.9-1.4 1.5-1.1 1.5.7zm-36.6 5.6c-.4.6-.2.8.4.4.6-.3 1.3-.2 1.7.3.7 1.3-3.2 3.4-5.1 2.7-1.9-.7-1.8-3.6.1-3.6.8 0 1.5-.5 1.5-1.1 0-.5.5-.7 1-.4.6.4.7 1.1.4 1.7zM110.1 262.6c-1.6 1.9-1.5 1.9 3.3 3.3 5.1 1.3 5.7.7 2.3-2.4-3-2.9-3.7-3-5.6-.9zM156 262c0 .5.5 1 1.1 1 .5 0 .7-.5.4-1-.3-.6-.8-1-1.1-1-.2 0-.4.4-.4 1zM99 265c0 .5.5 1 1 1 .6 0 1-.5 1-1 0-.6-.4-1-1-1-.5 0-1 .4-1 1zM160 265.5c0 .8.7 1.5 1.6 1.5 1.4 0 1.4-.3.4-1.5-.7-.8-1.4-1.5-1.6-1.5-.2 0-.4.7-.4 1.5zM151.8 266.7c-.6 2.2.7 5.2 1.7 4.1.4-.4.3-1.9-.2-3.5-.9-2.5-1-2.6-1.5-.6zM108.2 267.2c.5 1.5 2.8 2.3 2.8 1 0-.5-.7-1.3-1.6-1.6-1-.4-1.4-.1-1.2.6zM100.5 271c-.3.5-.1 1 .4 1 .6 0 1.1-.5 1.1-1 0-.6-.2-1-.4-1-.3 0-.8.4-1.1 1zM178.5 273c-.3.5.1 1 1 1s1.3-.5 1-1c-.3-.6-.8-1-1-1-.2 0-.7.4-1 1zM206.7 273.7c-.4.3-.7 1.3-.7 2.2.1 1.3.3 1.3 1.1-.2 1.1-1.9.8-3.3-.4-2zM125.5 275c.3.5 1 1 1.6 1 .5 0 .9-.5.9-1 0-.6-.7-1-1.6-1-.8 0-1.2.4-.9 1zM174 279c0 .5.5 1 1 1 .6 0 1-.5 1-1 0-.6-.4-1-1-1-.5 0-1 .4-1 1z"/><path d="M349.5 279c-.3.5-.1 1 .4 1 .6 0 1.1-.5 1.1-1 0-.6-.2-1-.4-1-.3 0-.8.4-1.1 1zM164 282.1c0 .5.5.7 1 .4.6-.3 1-.8 1-1.1 0-.2-.4-.4-1-.4-.5 0-1 .5-1 1.1zM340 282.1c0 1.1 3 1.2 4.8 0 .9-.5.3-.8-1.7-.9-1.7 0-3.1.4-3.1.9zM179.5 284.9c-.3.5-.1 1.2.5 1.6.5.3 1-.1 1-.9 0-1.8-.6-2.1-1.5-.7zM337.3 284.8c-1.2.2-2.7 1-3.3 1.8-1.4 1.6 0 1.7 5.4.5 2.3-.5 2.6-.8 1.5-1.6-.8-.6-2.4-.9-3.6-.7zM347.4 286.3c-2.6 1.5-8.8 8.6-8.2 9.3.3.2 2.5.2 4.9-.2 3.2-.5 5.3-1.7 7.7-4.2l3.4-3.5-2.4-1.3c-2.8-1.6-2.8-1.6-5.4-.1zm2.6 4.6c0 .5-.7 1.4-1.5 2.1-1.6 1.4-1.8 1-.9-1.4.6-1.7 2.4-2.2 2.4-.7zM178.5 294c.3.5.8 1 1.1 1 .2 0 .4-.5.4-1 0-.6-.5-1-1.1-1-.5 0-.7.4-.4 1zM349.5 299c.3.5.8 1 1.1 1 .2 0 .4-.5.4-1 0-.6-.5-1-1.1-1-.5 0-.7.4-.4 1zM131.5 305c.3.5.8 1 1.1 1 .2 0 .4-.5.4-1 0-.6-.5-1-1.1-1-.5 0-.7.4-.4 1zM339.7 307.5c-.7 2.3-.3 6.1.6 5.7.4-.1 1.2-.2 1.8-.2.8 0 .8-.4.1-1.3-.5-.6-1.2-2.3-1.4-3.7-.3-2.3-.4-2.3-1.1-.5zM193 309.1c0 1.1.4 1.8 1 1.4.5-.3.7-1.2.3-2-.7-2.1-1.3-1.9-1.3.6zM204.5 310c-.3.5-.1 1 .4 1 .6 0 1.1-.5 1.1-1 0-.6-.2-1-.4-1-.3 0-.8.4-1.1 1zM112.6 310.9c-.4.7-.5 1.5-.2 1.8.9.9 1.9-.4 1.4-1.8-.4-1.1-.6-1.1-1.2 0zM210.2 310.8c-.7.5-1 1.6-.6 2.5.9 2.5 2.4 2 2.4-.8s0-2.8-1.8-1.7zM196 317c0 .5.5 1 1 1 .6 0 1-.5 1-1 0-.6-.4-1-1-1-.5 0-1 .4-1 1zM438 317c0 .5.5 1 1.1 1 .5 0 .7-.5.4-1-.3-.6-.8-1-1.1-1-.2 0-.4.4-.4 1zM85 319.5c0 .8.5 1.5 1 1.5.6 0 1-.7 1-1.5s-.4-1.5-1-1.5c-.5 0-1 .7-1 1.5zM199.5 319c-.3.5-.1 1 .4 1 .6 0 1.1-.5 1.1-1 0-.6-.2-1-.4-1-.3 0-.8.4-1.1 1zM367.6 321.5c-.3.8-.1 1.5.4 1.5.6 0 1-.7 1-1.5s-.2-1.5-.4-1.5-.6.7-1 1.5zM431.1 322.6c-1 2.3-.9 3 .4 4.3 1.4 1.4 1.7 1.4 2.5.1 1.3-1.9.9-6.2-.6-6.7-.6-.2-1.6.9-2.3 2.3zM344.6 322.5c-1 2.7-.7 3.5 1.5 3.5 1.5 0 2-.5 1.7-2.2-.4-2.7-2.3-3.5-3.2-1.3zM129.7 322.7c-.4.3-.7 1.1-.7 1.7 0 .6.5.5 1.2-.2.6-.6.9-1.4.7-1.7-.3-.3-.9-.2-1.2.2zM187 323c0 .5.5 1 1 1 .6 0 1-.5 1-1 0-.6-.4-1-1-1-.5 0-1 .4-1 1zM149 324.5c-.7.9-.8 1.5-.2 1.5.5 0 1.2-.7 1.6-1.5.3-.8.4-1.5.2-1.5s-.9.7-1.6 1.5zM192 326.1c0 .5.5.7 1 .4.6-.3 1-.8 1-1.1 0-.2-.4-.4-1-.4-.5 0-1 .5-1 1.1zM124.5 327c.4.6 1.1.8 1.6.5 1.4-.9 1.1-1.5-.7-1.5-.8 0-1.2.5-.9 1zM145 327.5c0 .5.5 1.7 1 2.5s1 1 1 .5c0-.6-.5-1.7-1-2.5s-1-1.1-1-.5zM180.5 329c-.3.5.1 1 .9 1 .9 0 1.6-.5 1.6-1 0-.6-.4-1-.9-1-.6 0-1.3.4-1.6 1zM351.5 330.1c-1 1.5.1 2.3 2 1.5.9-.3 1.3-1 1-1.6-.8-1.3-2.2-1.3-3 .1zM417 330.2c0 1.8 1.8 3.4 2.8 2.4.3-.4-.2-1.4-1.1-2.3-1.6-1.6-1.7-1.6-1.7-.1zM157.5 331c.3.5.8 1 1.1 1 .2 0 .4-.5.4-1 0-.6-.5-1-1.1-1-.5 0-.7.4-.4 1zM60.7 333.1c-.3 1.2 0 2.2.9 2.6.9.3 1.2 1.3.9 2.4-.4 1.1-.2 1.9.4 1.9 1.4 0 1.4-3.7.1-4.5-.7-.4-.7-1.3 0-2.6.8-1.5.7-1.9-.3-1.9-.8 0-1.7.9-2 2.1zM343.8 334.7c-2.4.6-2.3 2.3.2 2.3h2.8c1.1 0 .9-2.3-.3-2.5-.5-.2-1.8-.1-2.7.2zM72 336c0 .5.5 1 1 1 .6 0 1-.5 1-1 0-.6-.4-1-1-1-.5 0-1 .4-1 1zM176 336.1c0 .5.5.7 1 .4.6-.3 1-.8 1-1.1 0-.2-.4-.4-1-.4-.5 0-1 .5-1 1.1zM47.1 339.6c0 1.1.3 1.4.6.6.3-.7.2-1.6-.1-1.9-.3-.4-.6.2-.5 1.3zM346.6 341.5c.4.8 1.7 1.5 3 1.5 1.5 0 2.4-.6 2.4-1.5 0-1-1-1.5-3-1.5-2.2 0-2.8.4-2.4 1.5zM162.5 344c.3.5 1 1 1.6 1 .5 0 .9-.5.9-1 0-.6-.7-1-1.6-1-.8 0-1.2.4-.9 1zM369.5 344c-.3.5-.4 1.4 0 2 .8 1.3 3.5.1 3.5-1.6 0-1.6-2.6-1.9-3.5-.4zM345.5 345c.3.5.8 1 1.1 1 .2 0 .4-.5.4-1 0-.6-.5-1-1.1-1-.5 0-.7.4-.4 1zM56.7 349c.3 1.1.7 2 .9 2 .2 0 .4-.9.4-2s-.4-2-.9-2-.7.9-.4 2zM51.2 350.2c.6 1.8 2.8 2.1 2.8.4 0-.9-.7-1.6-1.6-1.6-.9 0-1.4.5-1.2 1.2zM155.7 353.3c-.3.7-.1 2 .3 2.8.7 1.1 1 1 1.6-.4.4-1 .2-2.3-.3-2.8-.7-.7-1.2-.6-1.6.4zM146.2 355.1c.2.7 1 1.5 1.7 1.7.8.3 1.2-.1.9-.9-.2-.7-1-1.5-1.7-1.7-.8-.3-1.2.1-.9.9zM420.5 355c.3.5 1 1 1.6 1 .5 0 .9-.5.9-1 0-.6-.7-1-1.6-1-.8 0-1.2.4-.9 1zM50.5 356.9c-.3.5-.1 1.2.5 1.6.5.3 1-.1 1-.9 0-1.8-.6-2.1-1.5-.7zM152 357.6c0 .8.5 1.2 1 .9.6-.4.8-1.1.5-1.6-.9-1.4-1.5-1.1-1.5.7zM143.8 358.7c.7.3 1.6.2 1.9-.1.4-.3-.2-.6-1.3-.5-1.1 0-1.4.3-.6.6zM47 361.1c.7 1.1 1.4 1.8 1.7 1.5.8-.8-.5-3.6-1.7-3.6-.7 0-.7.6 0 2.1zM148 361c0 .5.5 1 1 1 .6 0 1-.5 1-1 0-.6-.4-1-1-1-.5 0-1 .4-1 1zM152 362c0 .5.5 1 1 1 .6 0 1-.5 1-1 0-.6-.4-1-1-1-.5 0-1 .4-1 1zM38.5 365.6c.1 2.2-.2 4.2-.7 4.5-.7.4-.6 1.4.1 2.8.7 1.2 1.6 1.9 2 1.7 1-.7.2-10.8-.9-12-.5-.5-.7.9-.5 3zM145.7 363.7c-.3.5-.2 1.5.2 2.2.7 1 1 1 1.6.1.4-.6.3-1.6-.3-2.2-.5-.5-1.2-.6-1.5-.1zM152 367.4c0 1.9.5 3.8 1 4.1.6.3 1 1.5 1 2.6 0 1 .7 1.9 1.5 1.9s1.5.4 1.5 1c0 .5.5 1 1 1 1.6 0 1.2-1.4-1.5-5.4-1.4-2-2.5-4.8-2.5-6.1 0-1.4-.4-2.5-1-2.5-.5 0-1 1.5-1 3.4zM385 365.5c-1.1 1.3-1.1 2 0 3.9.9 1.8.9 2.8 0 4.6-.9 1.8-.9 2.5.6 4.1 1.1 1.2 1.3 1.9.5 1.9-.7 0-.9.4-.6 1 .3.5 1.5 1 2.7 1 1.6 0 1.9-.5 1.6-2.5-.3-1.4-.1-2.8.3-3.1.5-.3.9-2.3.9-4.5 0-3.6-.2-4-2-3.4-1.8.6-2 .3-1.4-1.9.7-2.9-.7-3.4-2.6-1.1zM148 368.5c0 .9.5 1.5 1.1 1.3.6-.2 1.1-.8 1.1-1.3s-.5-1.1-1.1-1.3c-.6-.2-1.1.4-1.1 1.3zM392 369.9c0 1.6.5 4.2 1.1 5.8l1.2 2.8.9-3.5c.7-2.4.6-3.6-.1-3.8-.6-.2-1.1-1.2-1.1-2.3 0-1-.4-1.9-1-1.9-.5 0-1 1.3-1 2.9zM145 369c0 .8.4 3.1 1 5 .6 2.1.6 3.8.1 4.3-.6.6-1.2-.5-1.6-2.7-.4-2.1-1.3-3.6-2.1-3.6s-1.4-.5-1.4-1.2c0-.6-.3-.9-.6-.6-1.1 1.2 2.3 10.3 3.9 10.2.8-.1 2 1 2.6 2.4 1.1 2.4 1.1 2.4-2 1.8-1.7-.3-4.2-1.7-5.5-3.1-2.5-2.7-6.4-3.4-6.4-1.1 0 .8.5 1.8 1 2.1.6.3 1 1.7 1 3.1 0 1.6.6 2.4 1.7 2.4 1.3 0 1.4-.3.5-1.2-1.9-1.9-1.4-3.3.6-1.5 2.1 1.9 4.2 2.2 4.2.7 0-2.2 6.8 5.9 7.5 8.9.4 1.7 1.3 3.1 2.1 3.1s2.8 1.5 4.4 3.2c4.4 4.9 4 .8-.5-4.5-1.9-2.2-3.5-4.7-3.5-5.4 0-.8-.7-2.5-1.6-3.8-2.1-3.3-.8-3.2 1.8 0 1.1 1.4 2.5 2.5 3.3 2.5.7 0 1.5.7 1.9 1.5.3.8 1 1.5 1.6 1.5.7 0 .8-.6 0-1.9-2.2-4.1-.8-4.4 3-.6 2.7 2.7 3.9 4.9 4 6.8 0 2.5-.2 2.7-2.1 1.7-1.6-.9-1.8-1.4-.9-2.5 1.2-1.5.6-3.5-1.2-3.5-.5 0-.8.7-.4 1.5.3.8.1 1.5-.4 1.5-1.9 0-1 4.2 1 4.7 1.3.3 2 1.4 2 2.9 0 1.3.5 2.4 1 2.4.6 0 1-1.4 1-3.1 0-2.2.5-3.2 2-3.6 2.2-.6 2.5-1.9 1-5.7-.6-1.7-1.4-2.4-2.4-2-1.1.4-2.1-.5-3.3-3-.9-2-2-3.6-2.4-3.6-.4 0-1.2-1.4-1.8-3-.5-1.7-1.7-3-2.6-3-1.3 0-1.5.7-.9 3.5.9 4.9-1.4 4.6-4.9-.7-2.4-3.7-2.5-4.3-1.2-5.8 2.1-2.3 2.1-4.7 0-3-1.2 1-1.5 1-1.5-.2 0-2-2.9-5.8-3-3.8zM135.5 371c.3.5 1.1 1 1.6 1 .6 0 .7-.5.4-1-.3-.6-1.1-1-1.6-1-.6 0-.7.4-.4 1zM429 371c0 .5.5 1 1 1 .6 0 1-.5 1-1 0-.6-.4-1-1-1-.5 0-1 .4-1 1zM42.1 372.6c0 1.1.3 1.4.6.6.3-.7.2-1.6-.1-1.9-.3-.4-.6.2-.5 1.3zM59.5 373c-.3.5-.1 1 .4 1 .6 0 1.1-.5 1.1-1 0-.6-.2-1-.4-1-.3 0-.8.4-1.1 1zM131 375.5c0 .8.5 1.5 1 1.5.6 0 1-.7 1-1.5s-.4-1.5-1-1.5c-.5 0-1 .7-1 1.5z"/><path d="M135.4 375.2c-.4.6.1 1.7 1.1 2.5 3.4 2.4 4.6 1.3 2.1-2-1.5-2-2.2-2.1-3.2-.5zM127 376c0 .5.5 1 1.1 1 .5 0 .7-.5.4-1-.3-.6-.8-1-1.1-1-.2 0-.4.4-.4 1zM48.5 378c.3.5.8 1 1.1 1 .2 0 .4-.5.4-1 0-.6-.5-1-1.1-1-.5 0-.7.4-.4 1zM160 379c0 1.1.7 2 1.5 2 1.7 0 1.8-.2.9-2.4-.9-2.3-2.4-2-2.4.4zM152 379.4c0 .9.5 1.6 1 1.6.6 0 1-.4 1-.9 0-.6-.4-1.3-1-1.6-.5-.3-1 .1-1 .9zM405 379.2c0 .9.5 2 1 2.3 1.3.8 1.3-.5 0-2.5-.8-1.3-1-1.3-1 .2zM422 380c0 .5.5 1 1 1 .6 0 1-.5 1-1 0-.6-.4-1-1-1-.5 0-1 .4-1 1zM46.1 383.6c0 1.1.3 1.4.6.6.3-.7.2-1.6-.1-1.9-.3-.4-.6.2-.5 1.3zM164 383.9c0 2.2 1.6 3.6 2.4 2.2.8-1.2-.3-4.1-1.5-4.1-.5 0-.9.9-.9 1.9zM403.4 385.3c.3 1 .6 2.3.6 2.8s.5.9 1 .9c1.4 0 1.2-1.3-.6-3.6-1.4-1.7-1.5-1.7-1-.1zM52.1 389.1c1.1 2.2 2.9 2.5 2.9.5 0-.7-.9-1.6-2-1.9-1.7-.4-1.8-.2-.9 1.4zM409.4 389.6c.3.9.6 1.8.6 2 0 .2.5.4 1 .4.6 0 1-.9 1-2 0-1.2-.7-2-1.6-2-1.1 0-1.4.5-1 1.6zM41.1 390.1c-.1.8.6 2.4 1.5 3.5 1.5 1.9 1.5 1.9.6-.1-.5-1.1-1.2-2.7-1.5-3.5-.5-1.3-.6-1.3-.6.1zM130.2 390.1c.2.7 1 1.5 1.7 1.7.8.3 1.2-.1.9-.9-.2-.7-1-1.5-1.7-1.7-.8-.3-1.2.1-.9.9zM144 390.9c0 1.2.5 2.1 1 2.1.6 0 1-.6 1-1.4 0-.8-.4-1.8-1-2.1-.5-.3-1 .3-1 1.4zM134 391.9c0 .6.5 1.3 1 1.6.6.3 1-.1 1-.9 0-.9-.4-1.6-1-1.6-.5 0-1 .4-1 .9zM407.5 392c.3.5.8 1 1.1 1 .2 0 .4-.5.4-1 0-.6-.5-1-1.1-1-.5 0-.7.4-.4 1zM140 394.4c0 1.6 2.6 4.6 4 4.6.5 0 .7-.8.3-1.8-1.4-3.8-4.3-5.7-4.3-2.8zM414.3 394.4c.4 1 .7 2.2.7 2.7s.4.9.9.9c1.2 0 .2-3.8-1.2-4.7-.7-.4-.8 0-.4 1.1zM146 396.4c0 .8.5 1.8 1 2.1.6.3 1-.3 1-1.4 0-1.2-.4-2.1-1-2.1-.5 0-1 .6-1 1.4zM405 395.9c0 .6.5 1.3 1 1.6.6.3 1-.1 1-.9 0-.9-.4-1.6-1-1.6-.5 0-1 .4-1 .9zM44 399.2c0 1.8.5 2.8 1.5 2.8 1.8 0 2 3.1.3 4.8-.9.9-.9 1.2 0 1.2.7 0 1.4-.6 1.6-1.3.2-.6.8-2.7 1.4-4.5 1-3 .9-3.2-.8-2.7-1.2.4-2.2-.1-2.9-1.2-.9-1.6-1-1.4-1.1.9zM138 399.9c0 .6.8 1.5 1.9 2 1 .6 2.2 2.2 2.5 3.6.4 1.4 1.3 2.5 2.1 2.5 1.8 0 1.9-1.2.3-2.8-.7-.7-1.3-2.2-1.3-3.5 0-1.7-.7-2.3-2.7-2.5-1.6-.2-2.8.1-2.8.7zM412 401.5c0 1.4.4 2.5.9 2.5.4 0 .6-1.1.3-2.5-.2-1.4-.6-2.5-.8-2.5-.2 0-.4 1.1-.4 2.5zM418 400c0 .5.5 1 1.1 1 .5 0 .7-.5.4-1-.3-.6-.8-1-1.1-1-.2 0-.4.4-.4 1zM146 401.1c0 1.7 2 4.9 3.1 4.9.5 0 .3-1.4-.6-3-1.6-3.1-2.5-3.8-2.5-1.9zM149 401.1c0 .6 1.4 2.4 3.1 4 1.8 1.6 2.8 3.3 2.4 3.7-.4.4-1 .1-1.2-.6-.3-.6-.9-1.2-1.4-1.2-.5 0-.2 1.1.7 2.5.9 1.4 2 2.5 2.5 2.5 1.8 0 .8-5.4-1.7-8.7-2.5-3.3-4.4-4.3-4.4-2.2zM168.7 400.7c-.4.3-.7 1.1-.7 1.7 0 .6.5.5 1.2-.2.6-.6.9-1.4.7-1.7-.3-.3-.9-.2-1.2.2zM422 403c0 .5.4 1 .9 1 .6 0 1.3-.5 1.6-1 .3-.6-.1-1-.9-1-.9 0-1.6.4-1.6 1zM160 404.5c0 .8.5 1.5 1 1.5.6 0 1-.7 1-1.5s-.4-1.5-1-1.5c-.5 0-1 .7-1 1.5zM429.1 404.6c0 1.1.3 1.4.6.6.3-.7.2-1.6-.1-1.9-.3-.4-.6.2-.5 1.3zM137.2 405.6c.1.9.9 1.9 1.6 2.2.9.3 1.3-.2 1-1.4-.1-.9-.9-1.9-1.6-2.2-.9-.3-1.3.2-1 1.4zM412.1 407.4c1 2.1 4.7 4.2 5.7 3.1.8-.7-1-4.5-1.9-4-.5.3-1.8.1-2.9-.5-1.8-1-1.9-.9-.9 1.4zM164 408.8c0 1.9 1.8 4.2 3.2 4.2 1.2 0 .9-3.5-.4-4.8-1.7-1.7-2.8-1.5-2.8.6zM421 408c-1.3.8-1.3 1.1.2 2.6 1.6 1.7 1.8 1.7 2.4 0 .9-2.3-.7-3.8-2.6-2.6zM147 409.9c0 2 2.7 4.8 3.7 3.7.9-.8-1.4-5.6-2.7-5.6-.5 0-1 .8-1 1.9zM159 409.9c0 1 .7 2.1 1.5 2.5 1.1.4 1.5-.1 1.5-1.9 0-1.6-.6-2.5-1.5-2.5-.8 0-1.5.9-1.5 1.9zM377 409.4c0 .5 9.8 6.6 10.6 6.6.3 0 .4-.7 0-1.5-.6-1.7.9-2.1 1.9-.5.3.5 1.4 1 2.3 1 1.3 0 1.2-.5-.8-2-1.7-1.4-3.4-1.8-5.3-1.4-1.9.4-2.9.1-3.3-1-.5-1.4-5.4-2.4-5.4-1.2zM413 412.9c0 1.2.5 2.1 1 2.1.6 0 1-.6 1-1.4 0-.8-.4-1.8-1-2.1-.5-.3-1 .3-1 1.4zM418 412.1c0 .5-.5.7-1.1.3-.8-.5-1 .1-.5 1.9.4 1.6.1 2.7-.7 3.1-.9.5-.9.7 0 1.2.7.3 1 1.1.7 1.9-.3.7 1 2.4 2.9 3.9 4.1 3.1 4.7 3.2 4 .5-.4-1.2-1.1-1.8-2-1.5-1.1.5-1.4-.4-1.3-4.2.3-7 .1-8.2-1-8.2-.5 0-1 .5-1 1.1zM157 414c0 .5.5 1 1 1 .6 0 1-.5 1-1 0-.6-.4-1-1-1-.5 0-1 .4-1 1zM152.6 415.6c-.3.9-.6 1.6-.6 1.7 0 .1 1.1.3 2.5.3 2.7.2 3.1-.6 1.3-2.4-1.6-1.6-2.5-1.5-3.2.4zM378.7 414.7c-1.3 1.2-.7 2.3 1.3 2.3 1.1 0 2-.7 2-1.5 0-1.5-2.1-2.1-3.3-.8zM160.6 415.9c-.3.5.1 1.1.9 1.5.8.3 1.5.1 1.5-.4 0-1.3-1.8-2.2-2.4-1.1z"/><path d="M421 417.7c0 1.3.5 2.3 1 2.3 1.3 0 1.3-1.1 0-3-.8-1.2-1-1.1-1 .7zM383.5 418c-.3.5.1 1 1 1 .8 0 1.8.6 2.1 1.4.3.8 1.4 1.4 2.5 1.3 2.4-.2 2.4-.5-.3-2.8-2.6-2.1-4.4-2.4-5.3-.9zM161 421c0 .8.5 2.2 1 3 .9 1.3 1 1.3 1 0 0-.8-.5-2.2-1-3-.9-1.3-1-1.3-1 0zM184.1 421.6c0 1.1.3 1.4.6.6.3-.7.2-1.6-.1-1.9-.3-.4-.6.2-.5 1.3zM408 421.8c0 2.9-1 3.2-4.3 1.5-2.2-1.1-3.2-1.2-3.5-.4-.2.6-1.1 1.1-1.9 1.1-1.3 0-1.3.3-.3 1.5.7.8 2 1.5 3 1.5s2.3.7 3 1.5c1.4 1.6 5.5 2.1 4.5.5-.3-.6.4-1 1.5-1 1.7 0 2-.4 1.5-1.8-.4-.9-1-2.7-1.2-4-.6-2.6-2.3-3-2.3-.4z"/><path d="M404.5 422c.3.5 1.1 1 1.6 1 .6 0 .7-.5.4-1-.3-.6-1.1-1-1.6-1-.6 0-.7.4-.4 1zM166 423.4c0 .9.5 1.6 1 1.6.6 0 1-.4 1-.9 0-.6-.4-1.3-1-1.6-.5-.3-1 .1-1 .9zM412 422.9c0 .5.7 1.4 1.5 2.1 1.9 1.6 1.9 3 .1 3-2.2 0-2.7 1.6-1.5 4.4 1.5 3.1 4.4 3.6 3.6.6-.3-1.1-.2-2 .3-2 1.3 0 .5-6.5-1-7.7-1.8-1.5-3-1.6-3-.4zM175 424.5c0 .8.5 1.5 1 1.5.6 0 1-.7 1-1.5s-.4-1.5-1-1.5c-.5 0-1 .7-1 1.5zM374 424c0 .5.9 1 2.1 1 1.1 0 1.7-.5 1.4-1-.3-.6-1.3-1-2.1-1s-1.4.4-1.4 1zM169.7 425.7c-1.4 1.3-.6 3.3 1.3 3.3 1.1 0 2-.4 2-.9 0-1.3-2.6-3.2-3.3-2.4z"/><path d="M366.6 426.5c-.6 1.6-.4 1.7 7.4 1.9 4.8.1 9.1-1.6 7.6-3.1-.4-.4-1.1-.2-1.5.6-.6 1-1.7 1-4.7.2-5.4-1.5-8.1-1.4-8.8.4zM386 426c0 .5.4 1 .9 1 .6 0 1.3-.5 1.6-1 .3-.6-.1-1-.9-1-.9 0-1.6.4-1.6 1zM393.5 428c2.2 1.1 4.7 2 5.6 2 .9 0 2.2.7 2.9 1.5 1 1.2 1 1.5-.3 1.5s-1.1.6.8 2.6c1.9 2 3.1 2.5 6.2 2.2l3.8-.3-3-1.7c-2.1-1.2-2.5-1.7-1.2-1.8 2.3 0 2.2-2-.2-2-1.1 0-4.1-1.1-6.8-2.5-2.6-1.4-6.4-2.7-8.3-3l-3.5-.5 4 2zM165 428c0 .5.5 1 1 1 .6 0 1-.5 1-1 0-.6-.4-1-1-1-.5 0-1 .4-1 1zM173.7 429.9c-.5 2.2.1 3.3 1.4 2.5 1.2-.7 1.2-4.4 0-4.4-.5 0-1.1.9-1.4 1.9zM372.8 429.8c-1 .2-1.8.8-1.8 1.3s-.7.9-1.5.9-1.5.4-1.5 1c0 1.6 2.6 1.2 5.1-.9 2.6-2.1 2.4-3-.3-2.3zM378.5 430c-1.8.7-1.8.9-.3 1.5 2.5 1 12.1.2 12.5-1.1.4-1.3-9.2-1.6-12.2-.4zM161 431c0 .5.5 1 1 1 .6 0 1-.5 1-1 0-.6-.4-1-1-1-.5 0-1 .4-1 1zM166 431.9c0 .6.5 1.3 1 1.6.6.3 1-.1 1-.9 0-.9-.4-1.6-1-1.6-.5 0-1 .4-1 .9zM170.1 432.6c0 1.1.3 1.4.6.6.3-.7.2-1.6-.1-1.9-.3-.4-.6.2-.5 1.3z"/><path d="M396.6 432.6c-.9 2.4-.7 2.8.9 1.4 1.7-1.4 2-3 .6-3-.5 0-1.2.7-1.5 1.6zM374.2 433.6c-1.4 1-.5 1.3 5.3 1.9 3.9.4 8.4 1.3 10.2 2.1 3.9 1.8 7.6 1.8 7.1.1-.9-2.7-19.8-6.2-22.6-4.1zM419 433.1c0 .5.5.7 1 .4.6-.3 1-.8 1-1.1 0-.2-.4-.4-1-.4-.5 0-1 .5-1 1.1zM176.5 434c-.3.6.1 1.3 1 1.6 1.9.8 3 0 2-1.5-.8-1.4-2.2-1.4-3-.1zM172 435c0 .5.5 1 1 1 .6 0 1-.5 1-1 0-.6-.4-1-1-1-.5 0-1 .4-1 1zM152 436c0 .5.5 1 1 1 .6 0 1-.5 1-1 0-.6-.4-1-1-1-.5 0-1 .4-1 1zM158.5 436c-.3.5-.1 1 .4 1 .6 0 1.1-.5 1.1-1 0-.6-.2-1-.4-1-.3 0-.8.4-1.1 1zM350 436c0 .5.7 1 1.6 1 .8 0 1.2-.5.9-1-.3-.6-1-1-1.6-1-.5 0-.9.4-.9 1zM165.5 437c.3.5 1.1 1 1.6 1 .6 0 .7-.5.4-1-.3-.6-1.1-1-1.6-1-.6 0-.7.4-.4 1zM370.5 437c.3.5.8 1 1.1 1 .2 0 .4-.5.4-1 0-.6-.5-1-1.1-1-.5 0-.7.4-.4 1zM170.1 438.6c0 1.1.3 1.4.6.6.3-.7.2-1.6-.1-1.9-.3-.4-.6.2-.5 1.3zM177 439.5c0 .8.7 1.5 1.5 1.5s1.5-.7 1.5-1.5-.7-1.5-1.5-1.5-1.5.7-1.5 1.5zM182 439.5c0 .8.5 1.5 1 1.5.6 0 1-.7 1-1.5s-.4-1.5-1-1.5c-.5 0-1 .7-1 1.5zM347 439.1c0 2.2 3.3 3.8 5.4 2.7 1.9-1 1.9-1.1.1-2.4-2.3-1.7-5.5-1.8-5.5-.3zM376.3 440.2c-3.2 1.9-4.3 3.8-2.3 3.8.6 0 1-.5 1-1 0-.6 1-1 2.3-1 1.2 0 2.8-.9 3.5-2 1.6-2.6-.1-2.6-4.5.2zM385 438.6c0 2.5 6.5 5.7 10.1 4.9 2.1-.5 3.6-.1 5.5 1.4 2.9 2.3 4.4 2.7 4.4 1.1 0-.5-1.2-1.3-2.6-1.6-1.6-.4-2.3-1.2-2-2 .4-1-.4-1.4-3-1.4-1.9 0-5.1-.7-7.1-1.5-3.8-1.6-5.3-1.9-5.3-.9zM402 439c0 .5.5 1 1.1 1 .5 0 .7-.5.4-1-.3-.6-.8-1-1.1-1-.2 0-.4.4-.4 1zM368.7 439.7c-1.3 1.3-.7 3.2.8 2.7.8-.4 1.5-1.2 1.5-2 0-1.5-1.2-1.9-2.3-.7zM411.5 442c.3.5.8 1 1.1 1 .2 0 .4-.5.4-1 0-.6-.5-1-1.1-1-.5 0-.7.4-.4 1zM187.5 443c.3.5.8 1 1.1 1 .2 0 .4-.5.4-1 0-.6-.5-1-1.1-1-.5 0-.7.4-.4 1zM403.8 442.7c.7.3 1.6.2 1.9-.1.4-.3-.2-.6-1.3-.5-1.1 0-1.4.3-.6.6zM414 443.1c0 .5.5.7 1 .4.6-.3 1-.8 1-1.1 0-.2-.4-.4-1-.4-.5 0-1 .5-1 1.1zM183 444c0 .5.5 1 1.1 1 .5 0 .7-.5.4-1-.3-.6-.8-1-1.1-1-.2 0-.4.4-.4 1zM345.4 444.1c-.3.6-1.7.8-3 .5-2.4-.6-3.5.9-1.1 1.7.9.3.9.7-.1 2-.8.9-1 2.2-.6 2.8.5.9 1.1.7 2-.6.7-.9 2.7-2 4.5-2.4 3.4-.7 5.3-3.1 2.5-3.1-.9 0-1.6-.5-1.6-1 0-1.3-1.7-1.3-2.6.1zM331.3 445.5c-.8 2.2-.1 2.6 3.5 1.9 1.8-.4 3.2-1.3 3.2-2 0-2-5.9-1.8-6.7.1zM367 446c0 .5.7 1 1.5 1s1.5-.5 1.5-1c0-.6-.7-1-1.5-1s-1.5.4-1.5 1zM394 445.8c0 .4.4 1.3.9 2 .9 1.5 4.2 1.3 4.1-.3 0-1.1-5-2.7-5-1.7zM407.9 446.7c.9 1.6 7.1 2.9 7.1 1.4 0-.8-5-3.1-6.7-3.1-1 0-1.1.5-.4 1.7zM177 448c0 .5.5 1 1 1 .6 0 1-.5 1-1 0-.6-.4-1-1-1-.5 0-1 .4-1 1zM189.8 449.5c-.3 1.4-.2 2.5.2 2.5 1.1 0 2-3.9 1-4.5-.4-.3-1 .6-1.2 2zM335.7 448.6c-.8.8.1 2.4 1.3 2.4.4 0 1-.7 1.4-1.5.5-1.5-1.4-2.1-2.7-.9zM402.2 448.7c-2.6.5-2 2.3.9 2.3 1 0 1.9-.7 1.9-1.5s-.1-1.4-.2-1.4c-.2.1-1.3.4-2.6.6zM349.4 450.1c-.3.6-.1 1.6.5 2.2.8.8 1.1.5 1.1-1.1 0-2.4-.5-2.8-1.6-1.1zM390.6 449.9c-.3.5.1 1.1.9 1.5.9.3 1.5 0 1.5-.9 0-1.6-1.6-2-2.4-.6zM372.6 451.6c-.5 1.4-.4 1.5.9.4 1.7-1.4 1.9-2 .6-2-.5 0-1.2.7-1.5 1.6zM386.5 451c-.3.5.1 1 .9 1 .9 0 1.6-.5 1.6-1 0-.6-.4-1-.9-1-.6 0-1.3.4-1.6 1zM183.4 452.6c.3.9.6 1.8.6 2 0 .3.5.2 1-.1 1.6-1 1.2-3.5-.6-3.5-1.1 0-1.4.5-1 1.6zM345.7 451.7c-.4.3-.7 1.1-.7 1.7 0 .6.5.5 1.2-.2.6-.6.9-1.4.7-1.7-.3-.3-.9-.2-1.2.2zM377 452c0 .5.7 1 1.5 1s1.5-.5 1.5-1c0-.6-.7-1-1.5-1s-1.5.4-1.5 1zM394.5 452c-.3.6.1 1.3 1 1.6 1.9.8 3 0 2-1.5-.8-1.4-2.2-1.4-3-.1zM410.3 451.7c-2 .7-1.5 2.3.7 2.3 1.1 0 2-.4 2-.9 0-1.3-1.2-1.9-2.7-1.4zM326 453.2c0 .7.4 1.9.9 2.7 1.1 1.7 2.5-.3 1.7-2.4-.7-1.8-2.6-2-2.6-.3zM150 453.9c0 .5.7 1.4 1.5 2.1 1.8 1.5 4.2-.1 3.1-1.9-.8-1.3-4.6-1.5-4.6-.2zM262.3 455.9c-2.5 2.1-2.9 3.6-1.3 4.6 1.5.9 6-2.5 6-4.6 0-2.4-1.9-2.4-4.7 0zM381.5 455c.3.5 1.5 1 2.5 1s2.2-.5 2.5-1c.4-.6-.7-1-2.5-1s-2.9.4-2.5 1zM391.8 456.2c.9.9 1.5.9 2.4 0 .9-.9.7-1.2-1.2-1.2s-2.1.3-1.2 1.2z"/><path d="M399.4 456.4c-.3.8-1.6 1.6-2.7 1.6-1.2 0-3.1.1-4.2.2-1.1 0-2.8-.3-3.8-.7-1.3-.6-1.6-.4-1.1.9.8 2.1-1.7 5-5.7 6.6-3.3 1.4-3.8 3-1 3 1.3 0 1.8.5 1.5 1.7-.3 1.1.3 2.3 1.4 3 1.6 1 2.7.8 5.8-.9 2.2-1.2 4.9-2.1 6.2-2 1.8.1 2.4-.5 2.9-2.8.3-1.7.9-3 1.4-3 .7 0 7.9-6.6 7.9-7.3 0-.2-.8-.3-1.7-.4-1-.1-2.8-.4-4-.8-1.6-.5-2.5-.3-2.9.9zM188.7 458.1c-1 3.5-.9 3.8 1.3 3.2 2.4-.6 2.5-1.3.7-3.8-1.3-1.7-1.4-1.7-2 .6zM211 457.5c0 .8.6 1.5 1.4 1.5.8 0 1.6-.7 2-1.5.4-1-.1-1.5-1.4-1.5-1.1 0-2 .7-2 1.5zM243.5 457c-.3.5-1.5 1-2.6 1s-1.7.4-1.4 1c.3.5 1 1 1.4 1 1.4 0 5.7-3.9 4.4-4-.6 0-1.5.4-1.8 1zM374 457c0 .5.5 1 1 1 .6 0 1-.5 1-1 0-.6-.4-1-1-1-.5 0-1 .4-1 1zM378 457.5c-.9 1.1-1 1.9-.3 2.6.7.7 1.4.5 2.3-.6.9-1.1 1-1.9.3-2.6-.7-.7-1.4-.5-2.3.6zM290.6 461.2c-.4 1-1.6 2-2.7 2.3-2.6.9-4.4 4.2-2.2 4.2s6.5-4.6 6-6.5c-.4-1.6-.5-1.6-1.1 0zM410 461.5c0 .8.5 1.5 1 1.5.6 0 1-.7 1-1.5s-.4-1.5-1-1.5c-.5 0-1 .7-1 1.5zM137 461.9c0 .6.5 1.3 1 1.6.6.3 1-.1 1-.9 0-.9-.4-1.6-1-1.6-.5 0-1 .4-1 .9zM125 463.5c0 .8.5 1.5 1 1.5.6 0 1-.7 1-1.5s-.4-1.5-1-1.5c-.5 0-1 .7-1 1.5zM142.6 463.8c-.8 1.3.5 5.3 1.5 4.6 1.2-.7 1.2-4.1 0-4.9-.5-.3-1.2-.2-1.5.3zM148.6 466.6c-1.8 2.3-2.6 4.3-2.3 5.6.6 2.2-1.3 5.9-4.7 9.3-1.9 1.9-1.9 1.9 1.2 3.2 4.2 1.7 4.1 3.5-.1 3.2-2.4-.2-4.3.4-6.6 2.2-3 2.4-3.1 2.6-1.4 4.1 1.5 1.4 2.5 1.5 6.1.5 4.1-1.1 5.7-2.7 2.7-2.7-.8 0-1.5-.4-1.5-.9s.7-1.1 1.5-1.5c.9-.3 1.5 0 1.5.8 0 1.9 3.3 4.6 5.8 4.6 1.2 0 2.3-.8 2.7-2 .3-1.1 1.3-2 2.1-2s1.7-1.3 2-2.9c.6-2.9.7-3 3-1.4 1.8 1.1 2.3 2.1 1.9 3.7-.5 1.7-.4 1.8.4.6.7-1 1.1-1.1 1.1-.3 0 .7.8 1.3 1.8 1.3 2.9 0 1.6-5.5-1.9-8.4-1.6-1.4-2.9-3-2.9-3.7 0-1 .3-1 1.2-.1 1.8 1.8 3.8 1.4 3.8-.7 0-1.9-6.2-8.1-8-8.1-.6 0-1-.7-1-1.6 0-1.4.2-1.4 1.6-.3 1.4 1.2 1.6 1.1 1.2-.6-.4-2-1.9-2.3-5-1-1.4.5-1.8.2-1.8-1.3 0-3.4-1.4-3.3-4.4.4zM292.7 463.7c-1.4 1.3-.6 2.3 1.7 2.3 1.3 0 2.9-.7 3.6-1.5 1.1-1.3.8-1.5-1.7-1.5-1.6 0-3.3.3-3.6.7zM316.5 464c-.3.5-.1 1 .4 1 .6 0 1.1-.5 1.1-1 0-.6-.2-1-.4-1-.3 0-.8.4-1.1 1z"/><path d="M134 466.8c0 .4.5 1.3 1.1 1.9 1.5 1.5.5 2.9-3.5 4.8-2.5 1.2-3.3 2.1-2.9 3.6.4 1.3 0 1.9-1 1.9-2.2 0-3.2 2-1.6 3.1.8.5 2.4.9 3.5.9 1.2 0 2.4.7 2.8 1.5.7 2 5.6 2 5.6-.1 0-2.8-2-5.4-4.2-5.4-1.7 0-1.8-.3-.9-1.4 1.1-1.3 1.7-1.2 4.4.4 3 1.8 3.3 1.8 3.4.2.1-.9.4-2.8.5-4.2.2-1.9-.1-2.5-1.5-2.3-1.3.1-1.7-.4-1.3-1.4.4-.9.1-2.2-.5-2.9-1.2-1.5-3.9-1.9-3.9-.6zM407.7 466.6c-.9 1-.9 4.4.1 4.4.4 0 1.4-.5 2.2-1 1.3-.8 1.3-1.1-.1-2.5-.8-.8-1.8-1.2-2.2-.9zM400 469.5c0 .8.7 1.5 1.5 1.5.9 0 1.2-.6.9-1.5-.4-.8-1-1.5-1.5-1.5s-.9.7-.9 1.5zM121.3 472.1c-.9.9-.6 1.7 1.2 3 2.9 2.4 4.5 2.4 4.5.1 0-3.5-3.5-5.3-5.7-3.1zM394 473c.8.5 1.1 1 .6 1-.5 0-.1.9.9 2 2.1 2.3 4.5 2.6 4.5.6 0-2.2-2.8-4.6-5.3-4.6-1.8 0-1.9.2-.7 1zM401.5 475c-.3.5.1 1 .9 1s1.8-.5 2.1-1c.3-.6-.1-1-.9-1s-1.8.4-2.1 1zM167 478.8c0 1.2 1.9 2.6 2.6 1.9.2-.2-.2-1-1.1-1.7-.9-.8-1.5-.8-1.5-.2zM173.5 481c-.7 1.2.2 3 1.6 3 .5 0 .9-.9.9-2 0-2.1-1.5-2.7-2.5-1zM179.2 483.6c.2 1.1 1.1 2 2.2 2.2 1.3.3 1.7-.1 1.4-1.4-.2-1.1-1.1-2-2.2-2.2-1.3-.3-1.7.1-1.4 1.4zM396 483c0 .5.5 1 1 1 .6 0 1-.5 1-1 0-.6-.4-1-1-1-.5 0-1 .4-1 1zM129 490c0 .5.5 1 1.1 1 .5 0 .7-.5.4-1-.3-.6-.8-1-1.1-1-.2 0-.4.4-.4 1zM176 492c0 .5.5 1 1 1 .6 0 1-.5 1-1 0-.6-.4-1-1-1-.5 0-1 .4-1 1zM154 499.5c0 .9.6 1.2 1.5.9.8-.4 1.2-1 .9-1.5-.8-1.4-2.4-1-2.4.6zM161.5 499c.4.6 1.1.8 1.6.5 1.4-.9 1.1-1.5-.7-1.5-.8 0-1.2.5-.9 1zM287.7 1160.6c-.8.8.1 2.4 1.3 2.4.4 0 1-.7 1.4-1.5.5-1.5-1.4-2.1-2.7-.9z"/></svg>